ply
format ascii 1.0
element vertex 794
property float x
property float y
property float z
property uchar red
property uchar green
property uchar blue
element face 830
property list uchar int vertex_index
end_header
0.33013 -0.86809 1.42845 49 125 147
0.33018 -0.86809 1.46563 49 125 147
-0.18301 -0.86809 1.46563 49 125 147
-0.18296 -0.86809 1.42845 49 125 147
-0.18296 -0.92969 1.42845 49 125 147
-0.18301 -0.92969 1.46563 49 125 147
0.33018 -0.92969 1.46563 49 125 147
0.33013 -0.92969 1.42845 49 125 147
0.33018 -0.92969 1.46563 52 132 156
0.27114 -1.05325 1.46563 52 132 156
-0.12397 -1.05325 1.46563 52 132 156
-0.18301 -0.92969 1.46563 52 132 156
0.33018 -0.86809 1.46563 52 132 156
-0.18301 -0.86809 1.46563 52 132 156
0.27114 -1.05325 1.46563 49 125 147
0.22796 -1.13193 1.38609 49 125 147
-0.07972 -1.13193 1.38609 49 125 147
-0.12397 -1.05325 1.46563 49 125 147
0.02709 -1.13193 1.18498 49 125 147
-0.09101 -1.09769 1.37467 49 125 147
0.01787 -1.09769 1.18498 49 125 147
0.12009 -1.13193 1.18498 49 125 147
0.12931 -1.09769 1.18498 49 125 147
-0.12539 -1.04043 1.42838 49 125 147
0.27256 -1.04043 1.42838 49 125 147
0.23925 -1.09769 1.37467 49 125 147
-0.08593 -1.08055 1.22268 49 125 147
-0.08593 -1.13187 1.22268 49 125 147
-0.20315 -1.13187 1.22268 49 125 147
-0.20315 -1.08055 1.22268 49 125 147
-0.16797 -1.13187 1.11736 49 125 147
-0.12296 -1.13187 1.11729 49 125 147
-0.16797 -1.08055 1.11736 49 125 147
-0.12296 -1.08055 1.11729 49 125 147
0.43262 -1.03278 0.72964 239 239 239
0.43262 -1.03278 0.82405 239 239 239
0.31437 -1.03278 0.82405 239 239 239
0.31437 -1.03278 0.72964 239 239 239
0.43262 -1.0936 0.72964 239 239 239
0.31437 -1.0936 0.72964 239 239 239
0.31437 -1.0936 0.82405 239 239 239
0.43262 -1.0936 0.82405 239 239 239
-0.36819 -1.05746 0.59988 207 119 159
-0.36819 -1.05746 0.69895 207 119 159
0.36819 -1.05746 0.69895 207 119 159
0.36819 -1.05746 0.59988 207 119 159
0.36819 -0.90012 0.69895 207 119 159
0.36819 -0.90012 0.59988 207 119 159
-0.36819 -0.90012 0.69895 207 119 159
-0.36819 -0.90012 0.59988 207 119 159
0.71858 -0.26105 1.38804 129 187 197
-0.71858 -0.26105 1.38804 129 187 197
-0.71858 -0.26105 0.45548 129 187 197
0.71858 -0.26105 0.45548 129 187 197
0.66555 -0.32599 1.43767 129 187 197
-0.66555 -0.32599 1.43767 129 187 197
-0.72293 -0.34118 0.40585 129 187 197
0.72293 -0.34118 0.40585 129 187 197
0.79727 -0.34155 1.37819 129 187 197
0.72293 -0.39627 1.43767 129 187 197
0.79727 -0.34155 0.46533 129 187 197
0.79727 -1.04289 0.46533 129 187 197
0.79727 -1.04289 1.37819 129 187 197
0.72293 -1.04276 0.40585 129 187 197
0.72293 -1.10827 0.4662 129 187 197
0.72293 -1.10827 1.37863 129 187 197
0.55055 -1.10827 0.90573 129 187 197
0.55038 -1.10827 1.15791 129 187 197
-0.72293 -1.10827 0.4662 129 187 197
-0.72293 -1.04276 0.40585 129 187 197
0.66555 -1.04405 1.43767 129 187 197
0.72293 -0.98596 1.43767 129 187 197
-0.50662 -1.10827 0.6105 129 187 197
0.50662 -1.10827 0.6105 129 187 197
0.50662 -1.10827 0.81659 129 187 197
0.16049 -1.10827 0.81659 129 187 197
0.20581 -1.10827 0.90573 129 187 197
0.55055 -1.07237 0.90573 129 187 197
0.20581 -1.07237 0.90573 129 187 197
0.35978 -1.10827 1.15791 129 187 197
0.35978 -1.07237 1.15791 129 187 197
0.55038 -1.07237 1.15791 129 187 197
-0.66555 -1.04405 1.43767 129 187 197
-0.72293 -1.10827 1.37863 129 187 197
-0.79727 -1.04289 1.37819 129 187 197
-0.79727 -1.04289 0.46533 129 187 197
-0.55055 -1.10827 0.90573 129 187 197
-0.55038 -1.10827 1.15791 129 187 197
-0.79727 -0.34155 0.46533 129 187 197
-0.79727 -0.34155 1.37819 129 187 197
-0.72293 -0.39627 1.43767 129 187 197
-0.72293 -0.98596 1.43767 129 187 197
-0.50662 -1.10827 0.81659 129 187 197
-0.16049 -1.10827 0.81659 129 187 197
-0.06656 -1.10827 0.859 129 187 197
-0.06656 -1.10827 0.81103 129 187 197
-0.13107 -1.10827 0.76536 129 187 197
-0.04341 -1.10827 0.81103 129 187 197
-0.20581 -1.10827 0.90573 129 187 197
-0.55055 -1.07237 0.90573 129 187 197
-0.20581 -1.07237 0.90573 129 187 197
-0.35978 -1.10827 1.15791 129 187 197
-0.35978 -1.07237 1.15791 129 187 197
-0.55038 -1.07237 1.15791 129 187 197
0 -1.10827 0.90573 129 187 197
-0.04341 -1.10827 0.859 129 187 197
0.04334 -1.10827 0.859 129 187 197
0.04334 -1.10827 0.81103 129 187 197
0.06656 -1.10827 0.859 129 187 197
0.06656 -1.10827 0.81103 129 187 197
0.13107 -1.10827 0.76538 129 187 197
0.13107 -0.91033 0.76538 147 67 105
0.16049 -0.91033 0.81659 147 67 105
0.50662 -0.91033 0.81659 147 67 105
0.50662 -0.91033 0.6105 147 67 105
0.50662 -1.10827 0.81659 147 67 105
0.16049 -1.10827 0.81659 147 67 105
0.50662 -1.10827 0.6105 147 67 105
0.13107 -1.10827 0.76538 147 67 105
-0.50662 -0.91033 0.6105 147 67 105
-0.50662 -1.10827 0.6105 147 67 105
-0.13107 -0.91033 0.76536 147 67 105
-0.50662 -0.91033 0.81659 147 67 105
-0.16049 -0.91033 0.81659 147 67 105
-0.50662 -1.10827 0.81659 147 67 105
-0.16049 -1.10827 0.81659 147 67 105
-0.13107 -1.10827 0.76536 147 67 105
0.72293 -0.98596 1.43767 133 192 203
-0.72293 -0.98596 1.43767 133 192 203
-0.72293 -0.39627 1.43767 133 192 203
0.72293 -0.39627 1.43767 133 192 203
0.66555 -1.04405 1.43767 133 192 203
-0.66555 -1.04405 1.43767 133 192 203
-0.66555 -0.32599 1.43767 133 192 203
0.66555 -0.32599 1.43767 133 192 203
0.55038 -1.07237 1.15791 239 239 239
0.55055 -1.07237 0.90573 239 239 239
0.20581 -1.07237 0.90573 239 239 239
0.35978 -1.07237 1.15791 239 239 239
-0.43262 -1.03278 0.72964 239 239 239
-0.31437 -1.03278 0.72964 239 239 239
-0.31437 -1.03278 0.82405 239 239 239
-0.43262 -1.03278 0.82405 239 239 239
-0.43262 -1.0936 0.72964 239 239 239
-0.31437 -1.0936 0.72964 239 239 239
-0.31437 -1.0936 0.82405 239 239 239
-0.43262 -1.0936 0.82405 239 239 239
-0.55038 -1.07237 1.15791 239 239 239
-0.35978 -1.07237 1.15791 239 239 239
-0.20581 -1.07237 0.90573 239 239 239
-0.55055 -1.07237 0.90573 239 239 239
0.28505 -1.09106 0.94668 59 41 43
0.28505 -1.09106 0.98013 59 41 43
0.36027 -1.09106 0.98013 59 41 43
0.36027 -1.09106 0.94668 59 41 43
0.36027 -1.09106 1.16021 59 41 43
0.28505 -1.09106 1.16021 59 41 43
0.45233 -1.09106 0.89369 225 78 91
0.45233 -1.09106 0.98013 225 78 91
0.45233 -1.06824 0.98013 225 78 91
0.45233 -1.06824 0.89369 225 78 91
0.36027 -1.09106 0.98013 225 78 91
0.36027 -1.09106 0.94668 225 78 91
0.18585 -1.09106 0.89369 225 78 91
0.28505 -1.09106 0.94668 225 78 91
0.28505 -1.09106 0.98013 225 78 91
0.18585 -1.09106 0.98013 225 78 91
0.45233 -1.09106 1.17018 201 70 81
0.36027 -1.09106 1.16021 201 70 81
0.28505 -1.09106 1.16021 201 70 81
0.18585 -1.09106 1.17018 201 70 81
0.28505 -1.09106 0.98013 201 70 81
0.18585 -1.09106 0.98013 201 70 81
0.36027 -1.09106 0.98013 201 70 81
0.45233 -1.09106 0.98013 201 70 81
0.45233 -1.06824 1.17018 201 70 81
0.45233 -1.06824 0.98013 201 70 81
-0.28505 -1.09106 0.94668 59 41 43
-0.36043 -1.09106 0.94668 59 41 43
-0.36043 -1.09106 0.98013 59 41 43
-0.28505 -1.09106 0.98013 59 41 43
-0.36043 -1.09106 1.16021 59 41 43
-0.28505 -1.09106 1.16021 59 41 43
-0.45233 -1.09106 0.89369 225 78 91
-0.45233 -1.06824 0.89369 225 78 91
-0.45233 -1.06824 0.98013 225 78 91
-0.45233 -1.09106 0.98013 225 78 91
-0.36043 -1.09106 0.98013 225 78 91
-0.36043 -1.09106 0.94668 225 78 91
-0.18585 -1.09106 0.89369 225 78 91
-0.28505 -1.09106 0.94668 225 78 91
-0.28505 -1.09106 0.98013 225 78 91
-0.18585 -1.09106 0.98013 225 78 91
-0.45233 -1.09106 1.17018 201 70 81
-0.18585 -1.09106 1.17018 201 70 81
-0.28505 -1.09106 1.16021 201 70 81
-0.36043 -1.09106 1.16021 201 70 81
-0.28505 -1.09106 0.98013 201 70 81
-0.18585 -1.09106 0.98013 201 70 81
-0.36043 -1.09106 0.98013 201 70 81
-0.45233 -1.09106 0.98013 201 70 81
-0.45233 -1.06824 1.17018 201 70 81
-0.45233 -1.06824 0.98013 201 70 81
-0.06656 -1.09303 0.859 107 154 163
-0.04341 -1.09303 0.859 107 154 163
-0.04341 -1.09303 0.81103 107 154 163
-0.06656 -1.09303 0.81103 107 154 163
-0.06656 -1.10827 0.859 107 154 163
-0.06656 -1.10827 0.81103 107 154 163
-0.04341 -1.10827 0.81103 107 154 163
-0.04341 -1.10827 0.859 107 154 163
0.04334 -1.09303 0.859 107 154 163
0.06656 -1.09303 0.859 107 154 163
0.06656 -1.09303 0.81103 107 154 163
0.04334 -1.09303 0.81103 107 154 163
0.04334 -1.10827 0.859 107 154 163
0.04334 -1.10827 0.81103 107 154 163
0.06656 -1.10827 0.81103 107 154 163
0.06656 -1.10827 0.859 107 154 163
0.38965 -0.96706 1.43305 133 192 203
0.36959 -0.9373 1.43305 133 192 203
0.50569 -0.89673 1.61476 133 192 203
0.5057 -0.92798 1.5914 133 192 203
0.6575 -0.89666 1.61476 133 192 203
0.6575 -0.92793 1.5914 133 192 203
0.50566 -0.73154 1.61476 133 192 203
0.6575 -0.73148 1.61476 133 192 203
0.36955 -0.69174 1.43305 133 192 203
0.6575 -0.72778 1.55978 42 38 47
0.6575 -0.90094 1.55978 42 38 47
0.6575 -0.88012 1.57683 42 38 47
0.6575 -0.7486 1.57683 42 38 47
0.6575 -0.90212 1.43305 42 38 47
0.6575 -0.72654 1.43305 42 38 47
0.38965 -0.96706 1.43305 129 187 197
0.5057 -0.92798 1.5914 129 187 197
0.50573 -0.96672 1.43305 129 187 197
0.6575 -0.96666 1.43305 129 187 197
0.6575 -0.92793 1.5914 129 187 197
0.6575 -0.90212 1.43305 129 187 197
0.6575 -0.90094 1.55978 129 187 197
0.6575 -0.89666 1.61476 129 187 197
0.6575 -0.88012 1.57683 129 187 197
0.6575 -0.73148 1.61476 129 187 197
0.6575 -0.7486 1.57683 129 187 197
0.6575 -0.72778 1.55978 129 187 197
0.6575 -0.70035 1.5914 129 187 197
0.6575 -0.72654 1.43305 129 187 197
0.6575 -0.66204 1.43305 129 187 197
0.50562 -0.6621 1.43305 129 187 197
0.50565 -0.7004 1.5914 129 187 197
0.38957 -0.66182 1.43305 129 187 197
0.50565 -0.7004 1.5914 133 192 203
0.6575 -0.70035 1.5914 133 192 203
0.38957 -0.66182 1.43305 133 192 203
-0.38965 -0.96706 1.43305 133 192 203
-0.5057 -0.92798 1.5914 133 192 203
-0.50569 -0.89673 1.61476 133 192 203
-0.36959 -0.9373 1.43305 133 192 203
-0.6575 -0.89666 1.61476 133 192 203
-0.6575 -0.92793 1.5914 133 192 203
-0.50566 -0.73154 1.61476 133 192 203
-0.6575 -0.73148 1.61476 133 192 203
-0.36955 -0.69174 1.43305 133 192 203
-0.6575 -0.72778 1.55978 42 38 47
-0.6575 -0.7486 1.57683 42 38 47
-0.6575 -0.88012 1.57683 42 38 47
-0.6575 -0.90094 1.55978 42 38 47
-0.6575 -0.90212 1.43305 42 38 47
-0.6575 -0.72654 1.43305 42 38 47
-0.38965 -0.96706 1.43305 129 187 197
-0.50573 -0.96672 1.43305 129 187 197
-0.5057 -0.92798 1.5914 129 187 197
-0.6575 -0.96666 1.43305 129 187 197
-0.6575 -0.92793 1.5914 129 187 197
-0.6575 -0.90212 1.43305 129 187 197
-0.6575 -0.90094 1.55978 129 187 197
-0.6575 -0.89666 1.61476 129 187 197
-0.6575 -0.88012 1.57683 129 187 197
-0.6575 -0.73148 1.61476 129 187 197
-0.6575 -0.7486 1.57683 129 187 197
-0.6575 -0.72778 1.55978 129 187 197
-0.6575 -0.70035 1.5914 129 187 197
-0.6575 -0.72654 1.43305 129 187 197
-0.6575 -0.66204 1.43305 129 187 197
-0.50562 -0.6621 1.43305 129 187 197
-0.50565 -0.7004 1.5914 129 187 197
-0.38957 -0.66182 1.43305 129 187 197
-0.50565 -0.7004 1.5914 133 192 203
-0.6575 -0.70035 1.5914 133 192 203
-0.38957 -0.66182 1.43305 133 192 203
0.61583 0.94434 0.27905 129 187 197
0.61583 0.94434 1.09128 129 187 197
-0.61583 0.94434 1.09128 129 187 197
-0.61583 0.94434 0.27905 129 187 197
0.6746 0.88477 0.23138 129 187 197
-0.6746 0.88477 0.23138 129 187 197
-0.6746 0.88477 1.13895 129 187 197
-0.6746 -0.44001 1.14087 129 187 197
-0.6746 -0.44001 0.23138 129 187 197
0.6746 0.88477 1.13895 129 187 197
0.6746 -0.44001 0.23138 129 187 197
0.6746 -0.44001 1.14087 129 187 197
0.6746 0.88477 1.13895 133 192 203
0.6746 -0.44001 1.14087 133 192 203
-0.6746 -0.44001 1.14087 133 192 203
-0.6746 0.88477 1.13895 133 192 203
0.61583 0.94434 1.09128 133 192 203
-0.61583 0.94434 1.09128 133 192 203
0.68906 0.40815 0.84671 49 125 147
0.68906 0.40726 1.15586 49 125 147
0.51908 0.40726 1.15586 49 125 147
0.51908 0.40815 0.84671 49 125 147
0.68906 0.05279 0.84671 49 125 147
0.68906 0.05311 1.15586 49 125 147
0.51908 0.05279 0.84671 49 125 147
0.51908 0.05311 1.15586 49 125 147
0.68906 0.40726 1.15586 52 132 156
0.68906 0.05311 1.15586 52 132 156
0.51908 0.05311 1.15586 52 132 156
0.51908 0.40726 1.15586 52 132 156
-0.52263 0.61019 0.84671 49 125 147
-0.52263 0.61036 1.15586 49 125 147
-0.69262 0.61036 1.15586 49 125 147
-0.69262 0.61019 0.84671 49 125 147
-0.69262 0.25621 1.15586 49 125 147
-0.69262 0.25725 0.84671 49 125 147
-0.52263 0.25621 1.15586 49 125 147
-0.52263 0.25725 0.84671 49 125 147
-0.52263 0.61036 1.15586 52 132 156
-0.52263 0.25621 1.15586 52 132 156
-0.69262 0.25621 1.15586 52 132 156
-0.69262 0.61036 1.15586 52 132 156
-0.51987 0.82713 0.9235 49 125 147
-0.51987 0.82719 1.15479 49 125 147
-0.68986 0.82719 1.15479 49 125 147
-0.68986 0.82713 0.9235 49 125 147
-0.68986 0.68954 1.15479 49 125 147
-0.68986 0.68948 0.9235 49 125 147
-0.51987 0.82719 1.15479 52 132 156
-0.51987 0.68954 1.15479 52 132 156
-0.68986 0.68954 1.15479 52 132 156
-0.68986 0.82719 1.15479 52 132 156
-0.51987 0.68954 1.15479 49 125 147
-0.51987 0.68948 0.9235 49 125 147
0.55526 0.50871 0.21403 49 125 147
0.55526 0.47761 0.21403 49 125 147
0.47451 0.47761 0.21403 49 125 147
0.47451 0.50871 0.21403 49 125 147
0.47451 0.47761 0.12902 49 125 147
0.55526 0.47761 0.12902 49 125 147
0.47451 0.50871 0.12902 49 125 147
0.55526 0.50871 0.12902 49 125 147
0.32689 0.83768 0.24023 129 187 197
0.32689 0.83768 -7.62939E-08 129 187 197
0.60717 0.83768 -7.62939E-08 129 187 197
0.60717 0.83768 0.24023 129 187 197
0.63567 0.79431 0.24023 129 187 197
0.63567 0.79431 0 129 187 197
0.29839 0.79431 0 129 187 197
0.29839 0.79431 0.24023 129 187 197
0.63567 0.49531 0 129 187 197
0.29839 0.49531 0 129 187 197
0.29839 0.49531 0.24023 129 187 197
0.63567 0.49531 0.24023 129 187 197
-0.61468 0.50921 0.22499 49 125 147
-0.51504 0.50921 0.22499 49 125 147
-0.51504 0.47761 0.22499 49 125 147
-0.61468 0.47761 0.22499 49 125 147
-0.51504 0.47761 0.12881 49 125 147
-0.61468 0.47761 0.12881 49 125 147
-0.51504 0.50921 0.12881 49 125 147
-0.61468 0.50921 0.12881 49 125 147
-0.32689 0.83768 0.24023 129 187 197
-0.60717 0.83768 0.24023 129 187 197
-0.60717 0.83768 -7.62939E-08 129 187 197
-0.32689 0.83768 -7.62939E-08 129 187 197
-0.29839 0.79431 0.24023 129 187 197
-0.29839 0.79431 0 129 187 197
-0.63567 0.79431 0 129 187 197
-0.63567 0.79431 0.24023 129 187 197
-0.63567 0.49531 0 129 187 197
-0.63567 0.49531 0.24023 129 187 197
-0.29839 0.49531 0.24023 129 187 197
-0.29839 0.49531 0 129 187 197
0.59842 -0.49079 0.36937 49 125 147
0.59842 -0.52238 0.36937 49 125 147
0.42843 -0.52238 0.36937 49 125 147
0.42843 -0.49079 0.36937 49 125 147
0.42843 -0.52238 0.20515 49 125 147
0.59842 -0.52238 0.20515 49 125 147
0.42843 -0.49079 0.20515 49 125 147
0.59842 -0.49079 0.20515 49 125 147
0.40518 -0.49128 0.22301 49 125 147
0.40518 -0.52238 0.22301 49 125 147
0.32442 -0.52238 0.22301 49 125 147
0.32442 -0.49128 0.22301 49 125 147
0.32442 -0.52238 0.138 49 125 147
0.40518 -0.52238 0.138 49 125 147
0.32442 -0.49128 0.138 49 125 147
0.40518 -0.49128 0.138 49 125 147
0.32689 -0.16232 0.45248 129 187 197
0.32689 -0.16232 -7.62939E-08 129 187 197
0.60717 -0.16232 -7.62939E-08 129 187 197
0.60717 -0.16232 0.45248 129 187 197
0.63567 -0.20569 0.45248 129 187 197
0.63567 -0.20569 0 129 187 197
0.29839 -0.20569 0 129 187 197
0.29839 -0.20569 0.45248 129 187 197
0.63567 -0.50468 0 129 187 197
0.29839 -0.50468 0 129 187 197
0.29839 -0.50468 0.45248 129 187 197
0.63567 -0.50468 0.45248 129 187 197
-0.54318 -0.49079 0.39563 49 125 147
-0.37319 -0.49079 0.39563 49 125 147
-0.37319 -0.52238 0.39563 49 125 147
-0.54318 -0.52238 0.39563 49 125 147
-0.37319 -0.52238 0.2314 49 125 147
-0.54318 -0.52238 0.2314 49 125 147
-0.37319 -0.49079 0.2314 49 125 147
-0.54318 -0.49079 0.2314 49 125 147
-0.56895 -0.49128 0.20425 49 125 147
-0.4882 -0.49128 0.20425 49 125 147
-0.4882 -0.52238 0.20425 49 125 147
-0.56895 -0.52238 0.20425 49 125 147
-0.4882 -0.52238 0.11925 49 125 147
-0.56895 -0.52238 0.11925 49 125 147
-0.4882 -0.49128 0.11925 49 125 147
-0.56895 -0.49128 0.11925 49 125 147
-0.32689 -0.16232 0.45248 129 187 197
-0.60717 -0.16232 0.45248 129 187 197
-0.60717 -0.16232 -7.62939E-08 129 187 197
-0.32689 -0.16232 -7.62939E-08 129 187 197
-0.29839 -0.20569 0.45248 129 187 197
-0.29839 -0.20569 0 129 187 197
-0.63567 -0.20569 0 129 187 197
-0.63567 -0.20569 0.45248 129 187 197
-0.63567 -0.50468 0 129 187 197
-0.63567 -0.50468 0.45248 129 187 197
-0.29839 -0.50468 0.45248 129 187 197
-0.29839 -0.50468 0 129 187 197
-0.34189 0.43981 -7.62939E-08 222 222 222
-0.59216 0.43981 -7.62939E-08 222 222 222
-0.59216 0.43981 0.0786 222 222 222
-0.34189 0.43981 0.0786 222 222 222
-0.3253 0.49696 0.0786 222 222 222
-0.3253 0.49696 -7.62939E-08 222 222 222
-0.60875 0.49696 0.0786 222 222 222
-0.60875 0.49696 -7.62939E-08 222 222 222
-0.60875 0.49696 0.0786 239 239 239
-0.3253 0.49696 0.0786 239 239 239
-0.34189 0.43981 0.0786 239 239 239
-0.59216 0.43981 0.0786 239 239 239
-0.34189 -0.56019 -7.62939E-08 222 222 222
-0.59216 -0.56019 -7.62939E-08 222 222 222
-0.59216 -0.56019 0.0786 222 222 222
-0.34189 -0.56019 0.0786 222 222 222
-0.3253 -0.50303 0.0786 222 222 222
-0.3253 -0.50303 -7.62939E-08 222 222 222
-0.60875 -0.50303 0.0786 222 222 222
-0.60875 -0.50303 -7.62939E-08 222 222 222
-0.60875 -0.50303 0.0786 239 239 239
-0.3253 -0.50303 0.0786 239 239 239
-0.34189 -0.56019 0.0786 239 239 239
-0.59216 -0.56019 0.0786 239 239 239
0.34189 0.43981 -7.62939E-08 222 222 222
0.34189 0.43981 0.0786 222 222 222
0.59216 0.43981 0.0786 222 222 222
0.59216 0.43981 -7.62939E-08 222 222 222
0.3253 0.49696 0.0786 222 222 222
0.3253 0.49696 -7.62939E-08 222 222 222
0.60875 0.49696 0.0786 222 222 222
0.60875 0.49696 -7.62939E-08 222 222 222
0.60875 0.49696 0.0786 239 239 239
0.59216 0.43981 0.0786 239 239 239
0.34189 0.43981 0.0786 239 239 239
0.3253 0.49696 0.0786 239 239 239
0.34189 -0.56019 -7.62939E-08 222 222 222
0.34189 -0.56019 0.0786 222 222 222
0.59216 -0.56019 0.0786 222 222 222
0.59216 -0.56019 -7.62939E-08 222 222 222
0.3253 -0.50303 0.0786 222 222 222
0.3253 -0.50303 -7.62939E-08 222 222 222
0.60875 -0.50303 0.0786 222 222 222
0.60875 -0.50303 -7.62939E-08 222 222 222
0.60875 -0.50303 0.0786 239 239 239
0.59216 -0.56019 0.0786 239 239 239
0.34189 -0.56019 0.0786 239 239 239
0.3253 -0.50303 0.0786 239 239 239
0.25 0.03261 1.25041 107 164 111
1.06227 0.0299 1.25041 107 164 111
1.06235 0.02834 1.12541 107 164 111
0.25 0.03261 1.12541 107 164 111
1.06198 0.64187 1.12533 107 164 111
0.25 0.64462 1.12533 107 164 111
1.1242 0.59661 1.12534 107 164 111
1.12457 0.07074 1.1254 107 164 111
1.1245 0.07218 1.2504 107 164 111
1.00673 0.38198 1.25036 94 145 98
1.00682 0.32633 1.25037 94 145 98
0.25 0.32806 1.25037 94 145 98
0.25 0.37695 1.25036 94 145 98
1.06191 0.64343 1.25033 107 164 111
0.25 0.64462 1.25033 107 164 111
1.12413 0.59804 1.25034 107 164 111
1.06191 0.64343 1.25033 113 173 117
1.12413 0.59804 1.25034 113 173 117
1.00673 0.38198 1.25036 113 173 117
0.25 0.64462 1.25033 113 173 117
0.25 0.37695 1.25036 113 173 117
1.00682 0.32633 1.25037 113 173 117
1.1245 0.07218 1.2504 113 173 117
1.06227 0.0299 1.25041 113 173 117
0.25 0.32806 1.25037 113 173 117
0.25 0.03261 1.25041 113 173 117
0.11758 -0.17063 1.36343 65 105 68
0.42975 -0.17063 1.36343 65 105 68
0.25367 0.03873 1.23052 65 105 68
0.51231 -0.09218 1.36344 65 105 68
0.3024 0.08499 1.23052 65 105 68
0.51231 0.37016 1.3635 65 105 68
0.3024 0.59727 1.23058 65 105 68
0.51231 0.47628 1.36351 65 105 68
0.51231 0.77648 1.36354 65 105 68
0.42975 0.85493 1.36355 65 105 68
0.25367 0.64353 1.23059 65 105 68
-0.02839 0.85493 1.36355 65 105 68
-0.25367 0.64353 1.23059 65 105 68
-0.11977 0.85493 1.36355 65 105 68
-0.42975 0.85493 1.36355 65 105 68
-0.51231 0.77648 1.36354 65 105 68
-0.3024 0.59727 1.23058 65 105 68
-0.51231 0.31872 1.36349 65 105 68
-0.3024 0.08499 1.23052 65 105 68
-0.51231 0.22737 1.36348 65 105 68
-0.51231 -0.09218 1.36344 65 105 68
-0.42975 -0.17063 1.36343 65 105 68
-0.25367 0.03873 1.23052 65 105 68
0.02095 -0.17063 1.36343 65 105 68
-0.12019 0.76937 2.19512 181 95 113
-0.02839 0.76937 2.19512 181 95 113
-0.02839 0.64284 2.19511 181 95 113
-0.12106 0.64284 2.19511 181 95 113
-0.11977 0.85484 2.13332 181 95 113
-0.02839 0.85484 2.13332 181 95 113
-0.05861 0.57878 2.1951 181 95 113
-0.19839 0.57878 2.1951 181 95 113
-0.25208 0.64284 2.19511 181 95 113
-0.23651 0.54256 2.1951 181 95 113
-0.30051 0.59682 2.1951 181 95 113
-0.23651 0.34205 2.19507 181 95 113
-0.30051 0.31862 2.19507 181 95 113
-0.30051 0.22802 2.19506 181 95 113
-0.23651 0.14154 2.19505 181 95 113
-0.30051 0.08729 2.19504 181 95 113
-0.42693 0.31862 2.19507 181 95 113
-0.42693 0.22721 2.19506 181 95 113
-0.51231 0.22728 2.13324 181 95 113
-0.51231 0.31863 2.13325 181 95 113
-0.51231 0.22737 1.36348 181 95 113
-0.51231 0.31872 1.36349 181 95 113
-0.19839 0.10533 2.19504 181 95 113
-0.25208 0.04127 2.19504 181 95 113
-3.33786E-08 0.10533 2.19504 181 95 113
0.02095 0.04127 2.19504 181 95 113
0.11566 0.04127 2.19504 181 95 113
0.11686 -0.08526 2.19502 181 95 113
0.02095 -0.08526 2.19502 181 95 113
0.11758 -0.17072 2.1332 181 95 113
0.02095 -0.17072 2.1332 181 95 113
0.11758 -0.17063 1.36343 181 95 113
0.02095 -0.17063 1.36343 181 95 113
0.19839 0.10533 2.19504 181 95 113
0.25208 0.04127 2.19504 181 95 113
0.23651 0.14154 2.19505 181 95 113
0.30051 0.08729 2.19504 181 95 113
0.23651 0.41729 2.19508 181 95 113
0.30051 0.37006 2.19508 181 95 113
0.30051 0.47665 2.19509 181 95 113
0.42693 0.47625 2.19509 181 95 113
0.42693 0.37006 2.19508 181 95 113
0.51231 0.47619 2.13327 181 95 113
0.51231 0.37007 2.13326 181 95 113
0.51231 0.47628 1.36351 181 95 113
0.51231 0.37016 1.3635 181 95 113
0.23651 0.54256 2.1951 181 95 113
0.30051 0.59682 2.1951 181 95 113
0.19839 0.57878 2.1951 181 95 113
0.25208 0.64284 2.19511 181 95 113
-0.02839 0.85493 1.36355 217 114 136
0.42975 0.85493 1.36355 217 114 136
0.42975 0.85484 2.13332 217 114 136
-0.02839 0.85484 2.13332 217 114 136
0.51231 0.77639 2.13331 217 114 136
0.51231 0.77648 1.36354 217 114 136
0.51231 0.47619 2.13327 217 114 136
0.51231 0.47628 1.36351 217 114 136
-0.51231 0.77639 2.13331 217 114 136
-0.51231 0.31863 2.13325 217 114 136
-0.51231 0.31872 1.36349 217 114 136
-0.51231 0.77648 1.36354 217 114 136
-0.42975 0.85493 1.36355 217 114 136
-0.42975 0.85484 2.13332 217 114 136
-0.11977 0.85493 1.36355 217 114 136
-0.11977 0.85484 2.13332 217 114 136
0.51231 -0.09227 2.13321 217 114 136
0.51231 0.37007 2.13326 217 114 136
0.51231 0.37016 1.3635 217 114 136
0.51231 -0.09218 1.36344 217 114 136
0.42693 0.37006 2.19508 217 114 136
0.42693 -0.01989 2.19503 217 114 136
0.42975 -0.17072 2.1332 217 114 136
0.35812 -0.08526 2.19502 217 114 136
0.42975 -0.17063 1.36343 217 114 136
0.11758 -0.17072 2.1332 217 114 136
0.11758 -0.17063 1.36343 217 114 136
0.11686 -0.08526 2.19502 217 114 136
-0.51231 -0.09227 2.13321 217 114 136
-0.42975 -0.17072 2.1332 217 114 136
-0.42975 -0.17063 1.36343 217 114 136
-0.51231 -0.09218 1.36344 217 114 136
-0.35812 -0.08526 2.19502 217 114 136
-0.42693 -0.01989 2.19503 217 114 136
0.02095 -0.08526 2.19502 217 114 136
0.02095 -0.17072 2.1332 217 114 136
0.02095 -0.17063 1.36343 217 114 136
-0.51231 0.22728 2.13324 217 114 136
-0.51231 0.22737 1.36348 217 114 136
-0.42693 0.22721 2.19506 217 114 136
0.42693 0.704 2.19511 217 114 136
0.35812 0.76937 2.19512 217 114 136
-0.02839 0.76937 2.19512 217 114 136
0.42693 0.47625 2.19509 217 114 136
-0.35812 0.76937 2.19512 217 114 136
-0.42693 0.704 2.19511 217 114 136
-0.42693 0.31862 2.19507 217 114 136
-0.12019 0.76937 2.19512 217 114 136
-0.11977 0.85493 1.36355 181 95 113
-0.02839 0.85493 1.36355 181 95 113
-3.33786E-08 0.10533 2.19504 226 119 142
-3.33786E-08 0.17696 2.19505 226 119 142
0.13836 0.17696 2.19505 226 119 142
0.19839 0.10533 2.19504 226 119 142
-0.19839 0.10533 2.19504 226 119 142
-0.13836 0.17696 2.19505 226 119 142
-0.23651 0.14154 2.19505 226 119 142
-0.16495 0.20222 2.19506 226 119 142
-0.23651 0.34205 2.19507 226 119 142
-0.16495 0.34205 2.19507 226 119 142
-0.23651 0.54256 2.1951 226 119 142
-0.16495 0.48189 2.19509 226 119 142
-0.19839 0.57878 2.1951 226 119 142
-0.13836 0.50715 2.19509 226 119 142
-0.05861 0.57878 2.1951 226 119 142
-0.04087 0.50715 2.19509 226 119 142
0.19839 0.57878 2.1951 226 119 142
0.13836 0.50715 2.19509 226 119 142
0.23651 0.54256 2.1951 226 119 142
0.16495 0.48189 2.19509 226 119 142
0.23651 0.41729 2.19508 226 119 142
0.16495 0.39453 2.19508 226 119 142
0.23651 0.14154 2.19505 226 119 142
0.16495 0.20222 2.19506 226 119 142
-3.33786E-08 0.34205 2.19507 181 95 113
-0.13836 0.17696 2.19505 181 95 113
-0.16495 0.20222 2.19506 181 95 113
-3.33786E-08 0.17696 2.19505 181 95 113
0.13836 0.17696 2.19505 181 95 113
0.16495 0.20222 2.19506 181 95 113
0.16495 0.39453 2.19508 181 95 113
0.16495 0.48189 2.19509 181 95 113
-0.16495 0.34205 2.19507 181 95 113
-0.16495 0.48189 2.19509 181 95 113
-0.13836 0.50715 2.19509 181 95 113
-0.04087 0.50715 2.19509 181 95 113
0.13836 0.50715 2.19509 181 95 113
0.35812 0.76937 2.19512 226 119 142
0.25208 0.64284 2.19511 226 119 142
-0.02839 0.64284 2.19511 226 119 142
-0.02839 0.76937 2.19512 226 119 142
0.30051 0.59682 2.1951 226 119 142
0.42693 0.704 2.19511 226 119 142
0.30051 0.47665 2.19509 226 119 142
0.42693 0.47625 2.19509 226 119 142
-0.35812 0.76937 2.19512 226 119 142
-0.12019 0.76937 2.19512 226 119 142
-0.12106 0.64284 2.19511 226 119 142
-0.25208 0.64284 2.19511 226 119 142
-0.30051 0.59682 2.1951 226 119 142
-0.42693 0.704 2.19511 226 119 142
-0.30051 0.31862 2.19507 226 119 142
-0.42693 0.31862 2.19507 226 119 142
-0.30051 0.08729 2.19504 226 119 142
-0.42693 -0.01989 2.19503 226 119 142
-0.42693 0.22721 2.19506 226 119 142
-0.30051 0.22802 2.19506 226 119 142
-0.25208 0.04127 2.19504 226 119 142
-0.35812 -0.08526 2.19502 226 119 142
0.02095 0.04127 2.19504 226 119 142
0.02095 -0.08526 2.19502 226 119 142
0.35812 -0.08526 2.19502 226 119 142
0.11686 -0.08526 2.19502 226 119 142
0.11566 0.04127 2.19504 226 119 142
0.25208 0.04127 2.19504 226 119 142
0.42693 -0.01989 2.19503 226 119 142
0.30051 0.08729 2.19504 226 119 142
0.42693 0.37006 2.19508 226 119 142
0.30051 0.37006 2.19508 226 119 142
-0.42862 -0.0994 1.12538 107 164 111
-0.42862 -0.09847 1.20248 107 164 111
0.42862 -0.09847 1.20248 107 164 111
0.42862 -0.0994 1.12538 107 164 111
0.42862 0.77191 1.20223 107 164 111
0.42862 0.77099 1.12538 107 164 111
-0.42862 0.77099 1.12538 107 164 111
-0.42862 0.77191 1.20223 107 164 111
-0.30535 0.08809 1.2382 107 164 111
-0.30373 -0.61846 1.66983 107 164 111
-0.30336 -0.64922 1.61315 107 164 111
-0.30498 0.05124 1.18307 107 164 111
0.30496 -0.64743 1.61614 107 164 111
0.30702 0.0525 1.18633 107 164 111
0.2429 -0.71567 1.65514 107 164 111
-0.24126 -0.71734 1.65211 107 164 111
-0.24156 -0.68659 1.70879 107 164 111
0.24261 -0.68492 1.71182 107 164 111
0.30459 -0.61667 1.67282 107 164 111
-0.03177 0.08865 1.23966 113 173 117
-0.03177 -0.57566 1.64933 113 173 117
-0.30373 -0.61846 1.66983 113 173 117
-0.30535 0.08809 1.2382 113 173 117
-0.24156 -0.68659 1.70879 113 173 117
0.03217 -0.57552 1.64956 113 173 117
0.24261 -0.68492 1.71182 113 173 117
0.30459 -0.61667 1.67282 113 173 117
0.30665 0.08934 1.24146 113 173 117
0.03217 0.08878 1.24 113 173 117
0.30665 0.08934 1.24146 107 164 111
0.03217 -0.57552 1.64956 94 145 98
-0.03177 -0.57566 1.64933 94 145 98
-0.03177 0.08865 1.23966 94 145 98
0.03217 0.08878 1.24 94 145 98
0.30604 0.62332 1.23839 107 164 111
0.30427 1.37925 1.2401 107 164 111
0.3039 1.37958 1.17429 107 164 111
0.30567 0.64088 1.17445 107 164 111
0.25236 1.43989 1.17458 107 164 111
0.25267 1.43956 1.2404 107 164 111
-0.25265 1.43986 1.17805 107 164 111
-0.25234 1.43952 1.24387 107 164 111
-0.30413 1.37942 1.17777 107 164 111
-0.30376 1.37908 1.24358 107 164 111
-0.30633 0.64072 1.17793 107 164 111
-0.30596 0.62316 1.24187 107 164 111
0.03217 0.62325 1.23995 113 173 117
0.03217 1.31967 1.24172 113 173 117
0.30427 1.37925 1.2401 113 173 117
0.30604 0.62332 1.23839 113 173 117
0.25267 1.43956 1.2404 113 173 117
-0.03177 1.31965 1.24198 113 173 117
-0.25234 1.43952 1.24387 113 173 117
-0.30376 1.37908 1.24358 113 173 117
-0.30596 0.62316 1.24187 113 173 117
-0.03177 0.62323 1.24031 113 173 117
-0.03177 0.62323 1.24031 94 145 98
-0.03177 1.31965 1.24198 94 145 98
0.03217 1.31967 1.24172 94 145 98
0.03217 0.62325 1.23995 94 145 98
-0.25 0.03261 1.25041 107 164 111
-0.25 0.03261 1.12541 107 164 111
-1.06235 0.02834 1.12541 107 164 111
-1.06227 0.0299 1.25041 107 164 111
-1.06198 0.64187 1.12533 107 164 111
-0.25 0.64462 1.12533 107 164 111
-1.1242 0.59661 1.12534 107 164 111
-1.12457 0.07074 1.1254 107 164 111
-1.1245 0.07218 1.2504 107 164 111
-1.00673 0.38198 1.25036 94 145 98
-0.25 0.37695 1.25036 94 145 98
-0.25 0.32806 1.25037 94 145 98
-1.00682 0.32633 1.25037 94 145 98
-0.25 0.64462 1.25033 107 164 111
-1.06191 0.64343 1.25033 107 164 111
-1.12413 0.59804 1.25034 107 164 111
-1.06191 0.64343 1.25033 113 173 117
-1.00673 0.38198 1.25036 113 173 117
-1.12413 0.59804 1.25034 113 173 117
-0.25 0.64462 1.25033 113 173 117
-0.25 0.37695 1.25036 113 173 117
-1.00682 0.32633 1.25037 113 173 117
-1.1245 0.07218 1.2504 113 173 117
-1.06227 0.0299 1.25041 113 173 117
-0.25 0.32806 1.25037 113 173 117
-0.25 0.03261 1.25041 113 173 117
3 0 2 1
3 0 3 2
3 4 2 3
3 4 5 2
3 6 0 1
3 6 7 0
3 8 10 9
3 8 11 10
3 11 8 12
3 11 12 13
3 14 16 15
3 14 17 16
3 15 16 18
3 19 18 16
3 19 20 18
3 21 18 20
3 15 18 21
3 21 20 22
3 23 16 17
3 23 19 16
3 15 24 14
3 14 24 7
3 14 7 6
3 15 25 24
3 21 25 15
3 21 22 25
3 4 23 17
3 4 17 5
3 26 28 27
3 26 29 28
3 27 28 30
3 27 30 31
3 31 26 27
3 32 28 29
3 32 30 28
3 31 33 26
3 30 33 31
3 30 32 33
3 34 36 35
3 34 37 36
3 38 37 34
3 38 34 35
3 38 39 37
3 37 40 36
3 37 39 40
3 38 35 41
3 41 39 38
3 41 40 39
3 42 44 43
3 42 45 44
3 45 46 44
3 46 43 44
3 45 47 46
3 42 43 48
3 46 48 43
3 42 48 49
3 50 52 51
3 50 53 52
3 54 50 51
3 54 51 55
3 53 56 52
3 53 57 56
3 58 50 54
3 58 54 59
3 50 60 53
3 50 58 60
3 53 60 57
3 61 60 58
3 61 58 62
3 63 57 60
3 63 60 61
3 64 63 61
3 65 64 61
3 66 64 65
3 66 65 67
3 65 61 62
3 63 64 68
3 63 68 69
3 62 70 65
3 62 71 70
3 58 71 62
3 58 59 71
3 64 72 68
3 64 73 72
3 64 74 73
3 64 66 74
3 66 75 74
3 66 76 75
3 76 66 77
3 76 77 78
3 79 76 78
3 67 79 80
3 79 78 80
3 67 80 81
3 66 81 77
3 66 67 81
3 65 79 67
3 82 65 70
3 82 83 65
3 84 83 82
3 83 84 85
3 83 85 68
3 86 83 68
3 86 87 83
3 68 85 69
3 69 85 88
3 69 88 56
3 52 56 88
3 51 52 88
3 51 88 89
3 85 89 88
3 85 84 89
3 89 55 51
3 89 90 55
3 89 84 91
3 84 82 91
3 89 91 90
3 68 92 86
3 86 92 93
3 93 95 94
3 96 95 93
3 96 97 95
3 93 94 98
3 86 93 98
3 98 99 86
3 98 100 99
3 101 100 98
3 101 102 100
3 87 102 101
3 101 83 87
3 87 103 102
3 86 103 87
3 86 99 103
3 104 101 98
3 65 83 101
3 65 101 79
3 79 101 104
3 105 98 94
3 105 104 98
3 106 105 97
3 106 104 105
3 106 97 107
3 76 104 106
3 79 104 76
3 76 106 108
3 108 75 76
3 108 109 75
3 109 110 75
3 107 110 109
3 96 107 97
3 96 110 107
3 111 113 112
3 111 114 113
3 115 112 113
3 115 116 112
3 117 113 114
3 117 115 113
3 118 112 116
3 118 111 112
3 117 114 119
3 117 119 120
3 114 121 119
3 121 111 118
3 121 114 111
3 121 122 119
3 120 119 122
3 121 123 122
3 124 122 123
3 120 122 124
3 124 123 125
3 121 125 123
3 121 126 125
3 121 118 126
3 127 129 128
3 127 130 129
3 131 127 128
3 131 128 132
3 130 133 129
3 130 134 133
3 135 137 136
3 135 138 137
3 139 141 140
3 139 142 141
3 143 139 140
3 143 142 139
3 143 140 144
3 140 145 144
3 140 141 145
3 143 146 142
3 146 144 145
3 146 143 144
3 63 56 57
3 63 69 56
3 147 149 148
3 147 150 149
3 68 72 92
3 151 153 152
3 151 154 153
3 152 153 155
3 152 155 156
3 157 159 158
3 157 160 159
3 157 158 161
3 157 161 162
3 163 157 162
3 163 162 164
3 165 163 164
3 165 166 163
3 167 169 168
3 167 170 169
3 170 171 169
3 170 172 171
3 173 167 168
3 173 174 167
3 174 175 167
3 174 176 175
3 177 179 178
3 177 180 179
3 180 181 179
3 180 182 181
3 183 185 184
3 183 186 185
3 183 187 186
3 183 188 187
3 189 188 183
3 189 190 188
3 191 190 189
3 191 189 192
3 193 195 194
3 193 196 195
3 194 195 197
3 194 197 198
3 199 196 193
3 199 193 200
3 200 193 201
3 200 201 202
3 203 205 204
3 203 206 205
3 207 206 203
3 207 208 206
3 208 205 206
3 208 209 205
3 209 204 205
3 209 210 204
3 210 203 204
3 210 207 203
3 211 213 212
3 211 214 213
3 215 214 211
3 215 216 214
3 216 213 214
3 216 217 213
3 217 212 213
3 217 218 212
3 218 211 212
3 218 215 211
3 219 221 220
3 219 222 221
3 223 221 222
3 223 222 224
3 225 221 223
3 225 223 226
3 221 227 220
3 221 225 227
3 228 230 229
3 228 231 230
3 228 229 232
3 228 232 233
3 234 236 235
3 235 236 237
3 235 237 238
3 238 237 239
3 238 239 240
3 240 241 238
3 240 242 241
3 243 241 242
3 243 242 244
3 245 243 244
3 245 246 243
3 247 246 245
3 247 248 246
3 246 248 249
3 246 249 250
3 250 249 251
3 252 226 253
3 252 225 226
3 227 225 252
3 227 252 254
3 255 257 256
3 255 258 257
3 259 256 257
3 259 260 256
3 261 259 257
3 261 262 259
3 257 263 261
3 257 258 263
3 264 266 265
3 264 267 266
3 264 268 267
3 264 269 268
3 270 272 271
3 272 273 271
3 272 274 273
3 274 275 273
3 274 276 275
3 276 274 277
3 276 277 278
3 279 278 277
3 279 280 278
3 281 280 279
3 281 279 282
3 283 281 282
3 283 282 284
3 282 285 284
3 282 286 285
3 286 287 285
3 288 262 261
3 288 289 262
3 263 288 261
3 263 290 288
3 291 293 292
3 291 294 293
3 295 294 291
3 295 296 294
3 296 293 294
3 296 297 293
3 296 298 297
3 296 299 298
3 300 291 292
3 300 295 291
3 301 295 300
3 301 300 302
3 303 305 304
3 303 306 305
3 306 303 307
3 306 307 308
3 302 299 301
3 302 298 299
3 301 299 296
3 301 296 295
3 309 311 310
3 309 312 311
3 313 309 310
3 313 310 314
3 311 312 315
3 311 315 316
3 317 319 318
3 317 320 319
3 314 315 313
3 314 316 315
3 313 315 312
3 313 312 309
3 321 323 322
3 321 324 323
3 324 325 323
3 324 326 325
3 321 322 327
3 321 327 328
3 329 331 330
3 329 332 331
3 327 326 328
3 327 325 326
3 328 326 324
3 328 324 321
3 333 335 334
3 333 336 335
3 336 337 335
3 336 338 337
3 339 341 340
3 339 342 341
3 343 338 344
3 343 337 338
3 344 338 336
3 344 336 333
3 343 344 333
3 343 333 334
3 345 347 346
3 345 348 347
3 346 347 349
3 346 349 350
3 350 345 346
3 350 349 351
3 351 347 348
3 351 349 347
3 350 351 352
3 350 352 345
3 353 355 354
3 353 356 355
3 357 355 356
3 357 358 355
3 358 354 355
3 358 359 354
3 359 353 354
3 359 360 353
3 361 363 362
3 361 364 363
3 359 361 362
3 359 362 363
3 359 358 361
3 364 361 358
3 359 363 360
3 364 358 357
3 365 367 366
3 365 368 367
3 368 369 367
3 368 370 369
3 370 368 365
3 370 371 369
3 371 367 369
3 371 366 367
3 370 372 371
3 370 365 372
3 373 375 374
3 373 376 375
3 377 376 373
3 377 378 376
3 378 375 376
3 378 379 375
3 379 374 375
3 379 380 374
3 381 383 382
3 381 384 383
3 378 384 381
3 378 383 384
3 378 381 379
3 382 379 381
3 378 377 383
3 382 380 379
3 385 387 386
3 385 388 387
3 386 387 389
3 386 389 390
3 390 385 386
3 390 389 391
3 391 387 388
3 391 389 387
3 390 391 392
3 390 392 385
3 393 395 394
3 393 396 395
3 394 395 397
3 394 397 398
3 398 393 394
3 398 397 399
3 399 395 396
3 399 397 395
3 398 399 400
3 398 400 393
3 401 403 402
3 401 404 403
3 405 403 404
3 405 406 403
3 406 402 403
3 406 407 402
3 407 401 402
3 407 408 401
3 409 411 410
3 409 412 411
3 407 409 410
3 407 410 411
3 407 406 409
3 412 409 406
3 407 411 408
3 412 406 405
3 413 415 414
3 413 416 415
3 416 417 415
3 416 418 417
3 418 416 413
3 418 419 417
3 419 415 417
3 419 414 415
3 418 420 419
3 418 413 420
3 421 423 422
3 421 424 423
3 424 425 423
3 424 426 425
3 426 424 421
3 426 427 425
3 427 423 425
3 427 422 423
3 426 428 427
3 426 421 428
3 429 431 430
3 429 432 431
3 433 432 429
3 433 434 432
3 434 431 432
3 434 435 431
3 435 430 431
3 435 436 430
3 437 439 438
3 437 440 439
3 434 440 437
3 434 439 440
3 434 437 435
3 438 435 437
3 434 433 439
3 438 436 435
3 441 443 442
3 441 444 443
3 445 444 441
3 445 441 446
3 447 442 443
3 447 448 442
3 448 441 442
3 448 446 441
3 449 451 450
3 449 452 451
3 453 455 454
3 453 456 455
3 457 456 453
3 457 453 458
3 459 454 455
3 459 460 454
3 460 453 454
3 460 458 453
3 461 463 462
3 461 464 463
3 465 467 466
3 465 468 467
3 469 465 466
3 469 470 465
3 471 467 468
3 471 468 472
3 472 465 470
3 472 468 465
3 473 475 474
3 473 476 475
3 477 479 478
3 477 480 479
3 481 477 478
3 481 482 477
3 483 479 480
3 483 480 484
3 484 477 482
3 484 480 477
3 485 487 486
3 485 488 487
3 489 491 490
3 489 492 491
3 492 493 491
3 492 494 493
3 491 493 495
3 491 495 496
3 490 491 496
3 490 496 497
3 498 500 499
3 498 501 500
3 494 502 493
3 494 503 502
3 493 502 504
3 493 504 495
3 496 495 504
3 496 504 497
3 505 507 506
3 508 507 505
3 508 509 507
3 506 507 510
3 506 510 511
3 511 510 512
3 513 512 510
3 513 514 512
3 515 517 516
3 517 518 516
3 517 519 518
3 519 520 518
3 521 520 519
3 521 522 520
3 523 522 521
3 524 523 521
3 524 521 525
3 525 526 524
3 527 526 525
3 527 528 526
3 529 528 527
3 527 530 529
3 527 531 530
3 531 532 530
3 533 532 531
3 533 534 532
3 535 534 533
3 536 535 533
3 536 533 537
3 537 538 536
3 537 515 538
3 537 517 515
3 539 541 540
3 539 542 541
3 540 543 539
3 540 544 543
3 541 542 545
3 542 546 545
3 542 547 546
3 547 548 546
3 547 549 548
3 550 548 549
3 550 549 551
3 551 552 550
3 553 550 552
3 553 552 554
3 555 552 551
3 555 556 552
3 555 557 556
3 555 558 557
3 558 559 557
3 558 560 559
3 561 553 554
3 561 554 562
3 563 561 562
3 563 562 564
3 564 565 563
3 566 565 564
3 566 564 567
3 567 568 566
3 567 569 568
3 569 570 568
3 569 571 570
3 565 572 563
3 565 573 572
3 573 574 572
3 573 575 574
3 575 576 574
3 575 577 576
3 577 578 576
3 579 578 577
3 579 577 580
3 580 581 579
3 580 582 581
3 582 583 581
3 582 584 583
3 578 585 576
3 578 586 585
3 586 587 585
3 586 588 587
3 588 545 587
3 588 541 545
3 589 591 590
3 589 592 591
3 593 590 591
3 593 594 590
3 595 594 593
3 595 596 594
3 597 599 598
3 597 600 599
3 601 600 597
3 601 597 602
3 602 603 601
3 602 604 603
3 605 607 606
3 605 608 607
3 605 606 609
3 605 609 610
3 611 605 610
3 611 610 612
3 613 605 611
3 613 608 605
3 614 613 611
3 614 615 613
3 616 611 612
3 616 614 611
3 617 619 618
3 617 620 619
3 617 618 621
3 617 621 622
3 618 623 621
3 618 624 623
3 619 624 618
3 619 625 624
3 626 620 617
3 626 627 620
3 628 617 622
3 628 626 617
3 593 630 629
3 593 591 630
3 591 631 630
3 591 592 631
3 632 593 629
3 632 595 593
3 602 634 633
3 602 597 634
3 597 635 634
3 597 598 635
3 636 602 633
3 636 604 602
3 637 544 638
3 637 543 544
3 639 641 640
3 639 642 641
3 640 643 639
3 640 644 643
3 644 645 643
3 644 646 645
3 646 647 645
3 646 648 647
3 648 649 647
3 648 650 649
3 651 649 650
3 651 650 652
3 653 651 652
3 653 652 654
3 655 653 654
3 655 654 656
3 657 655 656
3 657 656 658
3 659 657 658
3 659 658 660
3 661 659 660
3 661 660 662
3 642 661 662
3 642 662 641
3 663 665 664
3 663 664 666
3 666 667 663
3 667 668 663
3 668 669 663
3 669 670 663
3 663 671 665
3 663 672 671
3 673 672 663
3 674 673 663
3 675 674 663
3 670 675 663
3 676 678 677
3 676 679 678
3 676 677 680
3 676 680 681
3 681 680 682
3 681 682 683
3 684 686 685
3 684 687 686
3 684 688 687
3 684 689 688
3 690 688 689
3 690 689 691
3 692 694 693
3 692 695 694
3 696 692 693
3 696 693 697
3 698 696 697
3 698 697 699
3 700 702 701
3 700 703 702
3 704 703 700
3 704 705 703
3 706 705 704
3 706 707 705
3 708 710 709
3 708 711 710
3 711 712 710
3 711 713 712
3 714 708 709
3 714 709 715
3 709 712 715
3 709 710 712
3 715 712 713
3 715 713 714
3 716 718 717
3 716 719 718
3 719 720 718
3 719 721 720
3 722 718 720
3 722 723 718
3 717 718 723
3 724 723 722
3 717 723 724
3 724 722 725
3 720 725 722
3 720 726 725
3 727 729 728
3 727 730 729
3 731 728 729
3 731 732 728
3 731 733 732
3 732 733 734
3 735 732 734
3 735 736 732
3 721 726 720
3 721 737 726
3 738 740 739
3 738 741 740
3 742 744 743
3 742 745 744
3 743 744 746
3 743 746 747
3 747 746 748
3 747 748 749
3 750 749 748
3 750 751 749
3 752 751 750
3 752 753 751
3 754 756 755
3 754 757 756
3 758 755 756
3 758 759 755
3 758 760 759
3 759 760 761
3 762 759 761
3 762 763 759
3 745 750 744
3 745 752 750
3 748 744 750
3 748 746 744
3 764 766 765
3 764 767 766
3 768 770 769
3 768 771 770
3 769 770 772
3 769 772 773
3 770 774 772
3 770 775 774
3 771 775 770
3 771 776 775
3 777 779 778
3 777 780 779
3 773 782 781
3 773 772 782
3 772 783 782
3 772 774 783
3 775 783 774
3 775 776 783
3 784 786 785
3 787 784 785
3 787 785 788
3 786 789 785
3 786 790 789
3 790 791 789
3 792 789 791
3 792 791 793
