ply
format ascii 1.0
element vertex 693
property float x
property float y
property float z
property uchar red
property uchar green
property uchar blue
element face 788
property list uchar int vertex_index
end_header
-0.48801 -0.14808 -7.62939E-08 120 217 172
-0.29037 -0.14808 0 120 217 172
-0.29037 -0.14808 0.37707 120 217 172
-0.48801 -0.14808 0.37707 120 217 172
-0.52972 -0.18923 -1.52588E-07 120 217 172
-0.52972 -0.18923 0.37707 120 217 172
-0.24865 -0.18923 0.37707 120 217 172
-0.24865 -0.18923 -1.52588E-07 120 217 172
-0.52972 -0.42057 -1.52588E-07 120 217 172
-0.24865 -0.42057 -1.52588E-07 120 217 172
-0.24865 -0.42057 0.07495 120 217 172
-0.24865 -0.42057 0.37707 120 217 172
-0.52972 -0.42057 0.07495 120 217 172
-0.52972 -0.42057 0.37707 120 217 172
-0.50657 -0.46433 1.5226E-18 120 217 172
-0.50657 -0.46433 0.07495 120 217 172
-0.27181 -0.46433 0.07495 120 217 172
-0.27181 -0.46433 1.5226E-18 120 217 172
-0.48801 0.69285 0.21461 120 217 172
-0.48801 0.69285 4.85577E-18 120 217 172
-0.29037 0.69285 1.17046E-17 120 217 172
-0.29037 0.69285 0.21461 120 217 172
-0.24865 0.65171 0.21461 120 217 172
-0.24865 0.65171 -1.52588E-07 120 217 172
-0.52972 0.65171 -1.52588E-07 120 217 172
-0.52972 0.42037 -1.52588E-07 120 217 172
-0.24865 0.42037 -1.52588E-07 120 217 172
-0.52972 0.65171 0.21461 120 217 172
-0.24865 0.42037 0.07495 120 217 172
-0.24865 0.42037 0.21461 120 217 172
-0.52972 0.42037 0.07495 120 217 172
-0.52972 0.42037 0.21461 120 217 172
-0.50657 0.3766 0 120 217 172
-0.50657 0.3766 0.07495 120 217 172
-0.27181 0.3766 0.07495 120 217 172
-0.27181 0.3766 0 120 217 172
0.49221 0.76199 0.23579 120 217 172
0.49221 0.76199 0.72252 120 217 172
-0.49227 0.76199 0.72252 120 217 172
-0.49227 0.76199 0.23579 120 217 172
0.55069 0.70289 0.19282 120 217 172
-0.55075 0.70289 0.19282 120 217 172
-0.55075 0.70289 0.72264 120 217 172
0.55069 0.70289 0.72264 120 217 172
0.55069 -0.36668 0.72253 120 217 172
0.55069 -0.36668 0.19282 120 217 172
-0.55075 -0.36668 0.19282 120 217 172
-0.55075 -0.36668 0.72253 120 217 172
0.22934 -0.71092 1.0845 59 138 94
0.22934 -0.71092 1.22136 59 138 94
-0.00301 -0.71092 1.22136 59 138 94
-0.00301 -0.71092 1.0845 59 138 94
0.22934 -0.94327 1.0845 59 138 94
-0.00301 -0.94327 1.0845 59 138 94
-0.00301 -0.94327 1.15293 59 138 94
0.22934 -0.94327 1.15293 59 138 94
0.22934 -0.87406 1.22136 59 138 94
-0.00301 -0.87406 1.22136 59 138 94
0.22934 -0.71092 1.22136 63 146 100
0.22934 -0.87406 1.22136 63 146 100
-0.00301 -0.87406 1.22136 63 146 100
-0.00301 -0.71092 1.22136 63 146 100
-0.07803 -0.90856 1.1005 59 138 94
-0.07803 -0.94327 1.1005 59 138 94
-0.1547 -0.94327 1.1005 59 138 94
-0.1547 -0.90856 1.1005 59 138 94
-0.1547 -0.94327 1.02837 59 138 94
-0.07803 -0.94327 1.02837 59 138 94
-0.1547 -0.90856 1.02837 59 138 94
-0.07803 -0.90856 1.02837 59 138 94
0.12619 -0.90856 0.98 59 138 94
0.12619 -0.94327 0.98 59 138 94
0.01875 -0.94327 0.98 59 138 94
0.01875 -0.90856 0.98 59 138 94
0.01875 -0.94327 0.86905 59 138 94
0.12619 -0.94327 0.86905 59 138 94
0.01875 -0.90856 0.86905 59 138 94
0.12619 -0.90856 0.86905 59 138 94
0.43618 -0.40899 0.25563 59 138 94
0.43618 -0.43532 0.25563 59 138 94
0.29453 -0.43532 0.25563 59 138 94
0.29453 -0.40899 0.25563 59 138 94
0.29453 -0.43532 0.11877 59 138 94
0.43618 -0.43532 0.11877 59 138 94
0.29453 -0.40899 0.11877 59 138 94
0.43618 -0.40899 0.11877 59 138 94
-0.31125 -0.4094 0.25749 59 138 94
-0.31125 -0.43532 0.25749 59 138 94
-0.42746 -0.43532 0.25749 59 138 94
-0.42746 -0.4094 0.25749 59 138 94
-0.42746 -0.43532 0.14515 59 138 94
-0.31125 -0.43532 0.14515 59 138 94
-0.42746 -0.4094 0.14515 59 138 94
-0.31125 -0.4094 0.14515 59 138 94
0.51362 -0.4094 0.34422 59 138 94
0.51362 -0.43532 0.34422 59 138 94
0.44633 -0.43532 0.34422 59 138 94
0.44633 -0.4094 0.34422 59 138 94
0.44633 -0.43532 0.27337 59 138 94
0.51362 -0.43532 0.27337 59 138 94
0.44633 -0.4094 0.27337 59 138 94
0.51362 -0.4094 0.27337 59 138 94
0.48969 0.43133 0.19493 59 138 94
0.48969 0.40808 0.19493 59 138 94
0.41498 0.40808 0.19493 59 138 94
0.41498 0.43133 0.19493 59 138 94
0.41498 0.40808 0.12958 59 138 94
0.48969 0.40808 0.12958 59 138 94
0.41498 0.43133 0.12958 59 138 94
0.48969 0.43133 0.12958 59 138 94
0.5625 0.31761 0.52842 59 138 94
0.5625 0.31784 0.73692 59 138 94
0.43256 0.31784 0.73692 59 138 94
0.43256 0.31761 0.52842 59 138 94
0.43256 0.02271 0.73724 59 138 94
0.5625 0.02271 0.73724 59 138 94
0.5625 0.02248 0.52874 59 138 94
0.43256 0.02248 0.52874 59 138 94
-0.43552 0.48699 0.52768 59 138 94
-0.43552 0.4871 0.73619 59 138 94
-0.56546 0.4871 0.73619 59 138 94
-0.56546 0.48699 0.52768 59 138 94
-0.56546 0.19197 0.73633 59 138 94
-0.43552 0.19197 0.73633 59 138 94
-0.56546 0.19186 0.52783 59 138 94
-0.43552 0.19186 0.52783 59 138 94
-0.3902 0.43133 0.18356 59 138 94
-0.3902 0.40808 0.18356 59 138 94
-0.48749 0.40808 0.18356 59 138 94
-0.48749 0.43133 0.18356 59 138 94
-0.48749 0.40808 0.09776 59 138 94
-0.3902 0.40808 0.09776 59 138 94
-0.48749 0.43133 0.09776 59 138 94
-0.3902 0.43133 0.09776 59 138 94
-0.43323 0.67585 0.61959 59 138 94
-0.43323 0.67581 0.73532 59 138 94
-0.56321 0.67581 0.73532 59 138 94
-0.56321 0.67585 0.61959 59 138 94
-0.43323 0.55744 0.61954 59 138 94
-0.56321 0.55744 0.61954 59 138 94
-0.56321 0.55739 0.73528 59 138 94
-0.43323 0.55739 0.73528 59 138 94
0.35511 -0.86065 0.55678 239 239 239
0.35511 -0.86065 0.61948 239 239 239
0.27602 -0.86065 0.61948 239 239 239
0.27602 -0.86065 0.55678 239 239 239
0.35511 -0.91134 0.55678 239 239 239
0.27602 -0.91134 0.55678 239 239 239
0.27602 -0.91134 0.61948 239 239 239
0.35511 -0.91134 0.61948 239 239 239
-0.35511 -0.86065 0.55678 239 239 239
-0.27602 -0.86065 0.55678 239 239 239
-0.27602 -0.86065 0.61948 239 239 239
-0.35511 -0.86065 0.61948 239 239 239
-0.27602 -0.91134 0.61948 239 239 239
-0.27602 -0.91134 0.55678 239 239 239
-0.35511 -0.91134 0.55678 239 239 239
-0.35511 -0.91134 0.61948 239 239 239
0.30683 -0.7501 0.52706 207 119 159
0.30683 -0.84512 0.52706 207 119 159
-0.30683 -0.84512 0.52706 207 119 159
-0.30683 -0.7501 0.52706 207 119 159
-0.30683 -0.84512 0.43267 207 119 159
0.30683 -0.84512 0.43267 207 119 159
-0.30683 -0.7501 0.43267 207 119 159
0.30683 -0.7501 0.43267 207 119 159
0.59882 -0.2708 0.37957 120 217 172
0.59882 -0.2708 1.14771 120 217 172
-0.59882 -0.2708 1.14771 120 217 172
-0.59882 -0.2708 0.37957 120 217 172
-0.55462 -0.31131 1.19805 120 217 172
0.55462 -0.31131 1.19805 120 217 172
0.60245 -0.33757 0.33821 120 217 172
-0.60245 -0.33757 0.33821 120 217 172
0.60245 -0.86897 0.33821 120 217 172
-0.60245 -0.86897 0.33821 120 217 172
0.66439 -0.33789 1.14849 120 217 172
0.60245 -0.37588 1.19805 120 217 172
-0.66663 -0.33648 0.38877 120 217 172
-0.66663 -0.87048 0.38877 120 217 172
-0.60245 -0.92356 0.3885 120 217 172
-0.66663 -0.87048 1.14749 120 217 172
-0.66663 -0.33648 1.14749 120 217 172
-0.60245 -0.92356 1.14886 120 217 172
-0.40616 -0.92356 0.44152 120 217 172
-0.40616 -0.92356 0.61326 120 217 172
0.40616 -0.92356 0.44152 120 217 172
0.60245 -0.92356 0.3885 120 217 172
0.40616 -0.92356 0.61326 120 217 172
0.60245 -0.92356 1.14886 120 217 172
-0.55462 -0.87004 1.19805 120 217 172
-0.60245 -0.82064 1.19805 120 217 172
0.66439 -0.86908 0.38777 120 217 172
0.66439 -0.86908 1.14849 120 217 172
0.66439 -0.33789 0.38777 120 217 172
0.55462 -0.87004 1.19805 120 217 172
0 -0.92356 1.14886 120 217 172
0.60245 -0.82164 1.19805 120 217 172
-0.03164 -0.92356 0.68477 120 217 172
-0.05352 -0.92356 0.68477 120 217 172
-0.05352 -0.92356 0.64091 120 217 172
-1.90735E-08 -0.92356 0.61326 120 217 172
-0.03164 -0.92356 0.64091 120 217 172
0.03164 -0.92356 0.68477 120 217 172
0.03164 -0.92356 0.64091 120 217 172
0.05345 -0.92356 0.64091 120 217 172
0.05345 -0.92356 0.68477 120 217 172
0.40616 -0.75861 0.61326 147 67 105
0.40616 -0.75861 0.44152 147 67 105
-0.40616 -0.75861 0.44152 147 67 105
-0.40616 -0.75861 0.61326 147 67 105
-0.40616 -0.92356 0.61326 147 67 105
-0.40616 -0.92356 0.44152 147 67 105
0.40616 -0.92356 0.44152 147 67 105
0.40616 -0.92356 0.61326 147 67 105
-1.90735E-08 -0.92356 0.61326 147 67 105
0.29037 -0.14808 0 120 217 172
0.48801 -0.14808 0 120 217 172
0.48801 -0.14808 0.37707 120 217 172
0.29037 -0.14808 0.37707 120 217 172
0.24865 -0.18923 0 120 217 172
0.24865 -0.18923 0.37707 120 217 172
0.52972 -0.18923 0.37707 120 217 172
0.52972 -0.18923 0 120 217 172
0.52972 -0.42057 0 120 217 172
0.24865 -0.42057 0 120 217 172
0.52972 -0.42057 0.07495 120 217 172
0.52972 -0.42057 0.37707 120 217 172
0.24865 -0.42057 0.37707 120 217 172
0.24865 -0.42057 0.07495 120 217 172
0.27181 -0.46433 1.5226E-18 120 217 172
0.27181 -0.46433 0.07495 120 217 172
0.50657 -0.46433 0.07495 120 217 172
0.50657 -0.46433 1.5226E-18 120 217 172
0.29037 0.69285 0.21461 120 217 172
0.29037 0.69285 1.17046E-17 120 217 172
0.48801 0.69285 4.85577E-18 120 217 172
0.48801 0.69285 0.21461 120 217 172
0.52972 0.65171 0.21461 120 217 172
0.52972 0.65171 0 120 217 172
0.24865 0.65171 0 120 217 172
0.24865 0.42037 0 120 217 172
0.52972 0.42037 0 120 217 172
0.24865 0.65171 0.21461 120 217 172
0.52972 0.42037 0.07495 120 217 172
0.52972 0.42037 0.21461 120 217 172
0.24865 0.42037 0.07495 120 217 172
0.24865 0.42037 0.21461 120 217 172
0.27181 0.3766 0 120 217 172
0.27181 0.3766 0.07495 120 217 172
0.50657 0.3766 0.07495 120 217 172
0.50657 0.3766 0 120 217 172
0.60245 -0.37588 1.19805 122 222 176
0.60245 -0.82164 1.19805 122 222 176
-0.60245 -0.82064 1.19805 122 222 176
-0.60245 -0.37538 1.19805 122 222 176
-0.55462 -0.87004 1.19805 122 222 176
0.55462 -0.87004 1.19805 122 222 176
-0.60245 -0.37538 1.19805 120 217 172
0.55462 -0.31131 1.19805 122 222 176
-0.55462 -0.31131 1.19805 122 222 176
0.29626 -0.76005 1.1557 120 217 172
0.34835 -0.76005 1.31181 120 217 172
0.39524 -0.78737 1.31181 120 217 172
0.34267 -0.78737 1.1557 120 217 172
0.29626 -0.55069 1.1557 120 217 172
0.34835 -0.55069 1.31181 120 217 172
0.60015 -0.78737 1.1557 120 217 172
0.58809 -0.78737 1.31181 120 217 172
0.64542 -0.76005 1.1557 120 217 172
0.63762 -0.76005 1.31181 120 217 172
0.63762 -0.55069 1.31181 120 217 172
0.64542 -0.55069 1.1557 120 217 172
0.40905 -0.76105 1.34115 120 217 172
0.37071 -0.74031 1.34115 120 217 172
0.37071 -0.57043 1.34115 120 217 172
0.39524 -0.52337 1.31181 120 217 172
0.34267 -0.52337 1.1557 120 217 172
0.58809 -0.52337 1.31181 120 217 172
0.60015 -0.52337 1.1557 120 217 172
0.40905 -0.54969 1.34115 120 217 172
0.57313 -0.54969 1.34115 120 217 172
0.61361 -0.57043 1.34115 120 217 172
0.57313 -0.76105 1.34115 120 217 172
0.61361 -0.74031 1.34115 120 217 172
0.40905 -0.76105 1.34115 122 222 176
0.37071 -0.74031 1.34115 122 222 176
0.37071 -0.57043 1.34115 122 222 176
0.40905 -0.54969 1.34115 122 222 176
0.57313 -0.54969 1.34115 122 222 176
0.57313 -0.76105 1.34115 122 222 176
0.61361 -0.57043 1.34115 122 222 176
0.61361 -0.74031 1.34115 122 222 176
-0.29626 -0.76005 1.1557 120 217 172
-0.34267 -0.78737 1.1557 120 217 172
-0.39524 -0.78737 1.31181 120 217 172
-0.34835 -0.76005 1.31181 120 217 172
-0.29626 -0.55069 1.1557 120 217 172
-0.34835 -0.55069 1.31181 120 217 172
-0.60015 -0.78737 1.1557 120 217 172
-0.58809 -0.78737 1.31181 120 217 172
-0.64542 -0.76005 1.1557 120 217 172
-0.63762 -0.76005 1.31181 120 217 172
-0.63762 -0.55069 1.31181 120 217 172
-0.64542 -0.55069 1.1557 120 217 172
-0.40905 -0.76105 1.34115 120 217 172
-0.37071 -0.74031 1.34115 120 217 172
-0.37071 -0.57043 1.34115 120 217 172
-0.39524 -0.52337 1.31181 120 217 172
-0.34267 -0.52337 1.1557 120 217 172
-0.58809 -0.52337 1.31181 120 217 172
-0.60015 -0.52337 1.1557 120 217 172
-0.40905 -0.54969 1.34115 120 217 172
-0.57313 -0.54969 1.34115 120 217 172
-0.61361 -0.57043 1.34115 120 217 172
-0.57313 -0.76105 1.34115 120 217 172
-0.61361 -0.74031 1.34115 120 217 172
-0.40905 -0.76105 1.34115 122 222 176
-0.40905 -0.54969 1.34115 122 222 176
-0.37071 -0.57043 1.34115 122 222 176
-0.37071 -0.74031 1.34115 122 222 176
-0.57313 -0.54969 1.34115 122 222 176
-0.57313 -0.76105 1.34115 122 222 176
-0.61361 -0.74031 1.34115 122 222 176
-0.61361 -0.57043 1.34115 122 222 176
0.52972 -0.42057 0.07495 122 222 176
0.50657 -0.46433 0.07495 122 222 176
0.27181 -0.46433 0.07495 122 222 176
0.24865 -0.42057 0.07495 122 222 176
-0.24865 -0.42057 0.07495 122 222 176
-0.27181 -0.46433 0.07495 122 222 176
-0.50657 -0.46433 0.07495 122 222 176
-0.52972 -0.42057 0.07495 122 222 176
-0.24865 0.42037 0.07495 122 222 176
-0.27181 0.3766 0.07495 122 222 176
-0.50657 0.3766 0.07495 122 222 176
-0.52972 0.42037 0.07495 122 222 176
0.52972 0.42037 0.07495 122 222 176
0.50657 0.3766 0.07495 122 222 176
0.27181 0.3766 0.07495 122 222 176
0.24865 0.42037 0.07495 122 222 176
0.03164 -0.91103 0.64091 93 168 133
0.03164 -0.91103 0.68477 93 168 133
0.05345 -0.91103 0.68477 93 168 133
0.05345 -0.91103 0.64091 93 168 133
0.03164 -0.92356 0.64091 93 168 133
0.05345 -0.92356 0.64091 93 168 133
0.05345 -0.92356 0.68477 93 168 133
0.03164 -0.92356 0.68477 93 168 133
-0.05352 -0.91103 0.64091 93 168 133
-0.05352 -0.91103 0.68477 93 168 133
-0.03164 -0.91103 0.68477 93 168 133
-0.03164 -0.91103 0.64091 93 168 133
-0.05352 -0.92356 0.64091 93 168 133
-0.03164 -0.92356 0.64091 93 168 133
-0.03164 -0.92356 0.68477 93 168 133
-0.05352 -0.92356 0.68477 93 168 133
0.63079 0.81308 0.71266 118 185 125
0.54536 0.89398 0.71273 118 185 125
0.04421 0.89383 0.71273 118 185 125
0.04421 0.81285 0.71266 118 185 125
0.57014 0.92134 0.77115 118 185 125
0.65944 0.83676 0.77107 118 185 125
0.65944 0.83625 1.32286 118 185 125
0.57014 0.92083 1.32294 118 185 125
0.04239 0.92134 0.77115 118 185 125
0.04239 0.92083 1.32294 118 185 125
0.65944 0.33642 1.3224 118 185 125
0.65944 0.33693 0.77061 118 185 125
0.63079 0.33934 0.71222 118 185 125
0.04421 0.33898 0.71222 118 185 125
0.65944 -0.25592 0.77007 118 185 125
0.65944 -0.25643 1.32186 118 185 125
0.65944 0.25198 1.32232 118 185 125
0.65944 0.25249 0.77054 118 185 125
0.57014 -0.34101 1.32178 118 185 125
0.57014 -0.34051 0.76999 118 185 125
0.61119 -0.21652 1.38951 118 185 125
0.52842 -0.29491 1.38944 118 185 125
0.60477 0.25192 1.38994 118 185 125
0.04239 -0.34101 1.32178 118 185 125
0.04239 -0.34051 0.76999 118 185 125
0.04298 -0.29491 1.38944 118 185 125
0.52842 0.87461 1.39051 118 185 125
0.04263 0.87461 1.39051 118 185 125
0.61119 0.79621 1.39044 118 185 125
0.60477 0.33636 1.39002 118 185 125
0.54536 -0.31303 0.71162 118 185 125
0.04421 -0.31288 0.71162 118 185 125
0.63079 -0.23212 0.7117 118 185 125
0.63079 0.25091 0.71214 118 185 125
0.04421 -0.23269 0.7117 118 185 125
0.04421 0.25093 0.71214 118 185 125
0.19559 0.53677 1.3902 123 194 131
0.52842 0.87461 1.39051 123 194 131
0.61119 0.79621 1.39044 123 194 131
0.24692 0.48399 1.39015 123 194 131
0.04239 0.53677 1.3902 123 194 131
0.04263 0.87461 1.39051 123 194 131
0.24692 0.33636 1.39002 123 194 131
0.60477 0.33636 1.39002 123 194 131
0.52842 -0.29491 1.38944 123 194 131
0.19559 0.04293 1.38975 123 194 131
0.24692 0.0957 1.3898 123 194 131
0.61119 -0.21652 1.38951 123 194 131
0.24692 0.25192 1.38994 123 194 131
0.60477 0.25192 1.38994 123 194 131
0.04239 0.04293 1.38975 123 194 131
0.04298 -0.29491 1.38944 123 194 131
0.24692 0.48399 1.39015 118 185 125
0.24692 0.48382 1.57815 118 185 125
0.19559 0.5366 1.5782 118 185 125
0.19559 0.53677 1.3902 118 185 125
0.04239 0.5366 1.5782 118 185 125
0.04239 0.53677 1.3902 118 185 125
0.19559 0.04293 1.38975 118 185 125
0.19559 0.04275 1.57774 118 185 125
0.24692 0.09553 1.57779 118 185 125
0.24692 0.0957 1.3898 118 185 125
0.24692 0.25175 1.57794 118 185 125
0.24692 0.25192 1.38994 118 185 125
0.04239 0.04275 1.57774 118 185 125
0.04239 0.04293 1.38975 118 185 125
0.24692 0.48382 1.57815 123 194 131
0.12091 0.37146 1.57804 123 194 131
0.08181 0.40845 1.57808 123 194 131
0.19559 0.5366 1.5782 123 194 131
0.04242 0.40845 1.57808 123 194 131
0.04239 0.5366 1.5782 123 194 131
0.12091 0.33498 1.57801 123 194 131
0.24692 0.33619 1.57801 123 194 131
0.19559 0.04275 1.57774 123 194 131
0.08181 0.1709 1.57786 123 194 131
0.12091 0.20789 1.57789 123 194 131
0.24692 0.09553 1.57779 123 194 131
0.12091 0.2509 1.57793 123 194 131
0.24692 0.25175 1.57794 123 194 131
0.04242 0.1709 1.57786 123 194 131
0.04239 0.04275 1.57774 123 194 131
0.12091 0.37146 1.57804 98 153 104
0.12091 0.37151 1.51936 98 153 104
0.08181 0.4085 1.51939 98 153 104
0.08181 0.40845 1.57808 98 153 104
0.04242 0.40845 1.57808 98 153 104
0.12091 0.33498 1.57801 98 153 104
0.12091 0.20794 1.51921 98 153 104
0.12091 0.2509 1.57793 98 153 104
0.12091 0.20789 1.57789 98 153 104
0.24692 0.33619 1.57801 98 153 104
0.24692 0.25175 1.57794 98 153 104
0.24692 0.33636 1.39002 98 153 104
0.24692 0.25192 1.38994 98 153 104
0.60477 0.33636 1.39002 98 153 104
0.60477 0.25192 1.38994 98 153 104
0.65944 0.33642 1.3224 98 153 104
0.65944 0.25198 1.32232 98 153 104
0.65944 0.33693 0.77061 98 153 104
0.65944 0.25249 0.77054 98 153 104
-0.04242 0.40845 1.57808 98 153 104
-0.04239 0.5366 1.5782 98 153 104
0.04239 0.5366 1.5782 98 153 104
-0.08181 0.4085 1.51939 98 153 104
-0.08181 0.40845 1.57808 98 153 104
-0.12091 0.37146 1.57804 98 153 104
-0.12091 0.37151 1.51936 98 153 104
-0.12091 0.20794 1.51921 98 153 104
-0.08181 0.17095 1.51918 98 153 104
-0.12091 0.33498 1.57801 98 153 104
-0.12091 0.2509 1.57793 98 153 104
-0.24692 0.33619 1.57801 98 153 104
-0.24692 0.25175 1.57794 98 153 104
-0.24692 0.33636 1.39002 98 153 104
-0.24692 0.25192 1.38994 98 153 104
-0.60485 0.33636 1.39002 98 153 104
-0.60485 0.25192 1.38994 98 153 104
-0.65944 0.33642 1.3224 98 153 104
-0.65944 0.25198 1.32232 98 153 104
-0.65944 0.33693 0.77061 98 153 104
-0.65944 0.25249 0.77054 98 153 104
-0.12091 0.20789 1.57789 98 153 104
0.08181 0.17095 1.51918 98 153 104
0.08181 0.1709 1.57786 98 153 104
0.04242 0.1709 1.57786 98 153 104
-0.04242 0.1709 1.57786 98 153 104
-0.08181 0.1709 1.57786 98 153 104
0.04421 0.89383 0.71273 98 153 104
-0.04421 0.89383 0.71273 98 153 104
-0.04421 0.81285 0.71266 98 153 104
0.04421 0.81285 0.71266 98 153 104
-0.04421 0.33898 0.71222 98 153 104
0.04421 0.33898 0.71222 98 153 104
-0.04421 0.25093 0.71214 98 153 104
0.04421 0.25093 0.71214 98 153 104
0.63079 0.25091 0.71214 98 153 104
0.63079 0.33934 0.71222 98 153 104
-0.04421 -0.23269 0.7117 98 153 104
0.04421 -0.23269 0.7117 98 153 104
-0.04421 -0.31288 0.71162 98 153 104
0.04421 -0.31288 0.71162 98 153 104
-0.04239 -0.34051 0.76999 98 153 104
0.04239 -0.34051 0.76999 98 153 104
-0.63079 0.25108 0.71214 98 153 104
-0.63079 0.33917 0.71222 98 153 104
0.04263 0.87461 1.39051 98 153 104
-0.04263 0.87461 1.39051 98 153 104
-0.04239 0.92083 1.32294 98 153 104
0.04239 0.92083 1.32294 98 153 104
0.04239 0.53677 1.3902 98 153 104
-0.04239 0.53677 1.3902 98 153 104
0.24692 0.33619 1.57801 118 185 125
0.24692 0.33636 1.39002 118 185 125
-0.63079 0.81308 0.71266 118 185 125
-0.04421 0.81285 0.71266 118 185 125
-0.04421 0.89383 0.71273 118 185 125
-0.54536 0.89398 0.71273 118 185 125
-0.57014 0.92134 0.77115 118 185 125
-0.65944 0.83676 0.77107 118 185 125
-0.65944 0.83625 1.32286 118 185 125
-0.57014 0.92083 1.32294 118 185 125
-0.04239 0.92134 0.77115 118 185 125
-0.04239 0.92083 1.32294 118 185 125
-0.65944 0.33642 1.3224 118 185 125
-0.65944 0.33693 0.77061 118 185 125
-0.63079 0.33917 0.71222 118 185 125
-0.04421 0.33898 0.71222 118 185 125
-0.65944 -0.25592 0.77007 118 185 125
-0.65944 0.25249 0.77054 118 185 125
-0.65944 0.25198 1.32232 118 185 125
-0.65944 -0.25643 1.32186 118 185 125
-0.57014 -0.34101 1.32178 118 185 125
-0.57014 -0.34051 0.76999 118 185 125
-0.61119 -0.21652 1.38951 118 185 125
-0.52842 -0.29491 1.38944 118 185 125
-0.60485 0.25192 1.38994 118 185 125
-0.04239 -0.34101 1.32178 118 185 125
-0.04239 -0.34051 0.76999 118 185 125
-0.04298 -0.29491 1.38944 118 185 125
-0.04263 0.87461 1.39051 118 185 125
-0.52842 0.87461 1.39051 118 185 125
-0.61119 0.79621 1.39044 118 185 125
-0.60485 0.33636 1.39002 118 185 125
-0.04421 -0.31288 0.71162 118 185 125
-0.54536 -0.31303 0.71162 118 185 125
-0.63079 -0.23212 0.7117 118 185 125
-0.63079 0.25108 0.71214 118 185 125
-0.04421 -0.23269 0.7117 118 185 125
-0.04421 0.25093 0.71214 118 185 125
-0.19559 0.53677 1.3902 123 194 131
-0.24692 0.48399 1.39015 123 194 131
-0.61119 0.79621 1.39044 123 194 131
-0.52842 0.87461 1.39051 123 194 131
-0.04239 0.53677 1.3902 123 194 131
-0.04263 0.87461 1.39051 123 194 131
-0.24692 0.33636 1.39002 123 194 131
-0.60485 0.33636 1.39002 123 194 131
-0.52842 -0.29491 1.38944 123 194 131
-0.61119 -0.21652 1.38951 123 194 131
-0.24692 0.0957 1.3898 123 194 131
-0.19559 0.04293 1.38975 123 194 131
-0.24692 0.25192 1.38994 123 194 131
-0.60485 0.25192 1.38994 123 194 131
-0.04239 0.04293 1.38975 123 194 131
-0.04298 -0.29491 1.38944 123 194 131
-0.24692 0.48399 1.39015 118 185 125
-0.19559 0.53677 1.3902 118 185 125
-0.19559 0.5366 1.5782 118 185 125
-0.24692 0.48382 1.57815 118 185 125
-0.04239 0.5366 1.5782 118 185 125
-0.04239 0.53677 1.3902 118 185 125
-0.19559 0.04293 1.38975 118 185 125
-0.24692 0.0957 1.3898 118 185 125
-0.24692 0.09553 1.57779 118 185 125
-0.19559 0.04275 1.57774 118 185 125
-0.24692 0.25175 1.57794 118 185 125
-0.24692 0.25192 1.38994 118 185 125
-0.04239 0.04275 1.57774 118 185 125
-0.04239 0.04293 1.38975 118 185 125
-0.24692 0.48382 1.57815 123 194 131
-0.19559 0.5366 1.5782 123 194 131
-0.08181 0.40845 1.57808 123 194 131
-0.12091 0.37146 1.57804 123 194 131
-0.04242 0.40845 1.57808 123 194 131
-0.04239 0.5366 1.5782 123 194 131
-0.12091 0.33498 1.57801 123 194 131
-0.24692 0.33619 1.57801 123 194 131
-0.19559 0.04275 1.57774 123 194 131
-0.24692 0.09553 1.57779 123 194 131
-0.12091 0.20789 1.57789 123 194 131
-0.08181 0.1709 1.57786 123 194 131
-0.12091 0.2509 1.57793 123 194 131
-0.24692 0.25175 1.57794 123 194 131
-0.04242 0.1709 1.57786 123 194 131
-0.04239 0.04275 1.57774 123 194 131
0.04239 -0.34101 1.32178 98 153 104
-0.04239 -0.34101 1.32178 98 153 104
0.04298 -0.29491 1.38944 98 153 104
-0.04298 -0.29491 1.38944 98 153 104
0.04239 0.04293 1.38975 98 153 104
-0.04239 0.04293 1.38975 98 153 104
0.04239 0.04275 1.57774 98 153 104
-0.04239 0.04275 1.57774 98 153 104
0.04239 0.92134 0.77115 98 153 104
-0.04239 0.92134 0.77115 98 153 104
-0.24692 0.33619 1.57801 118 185 125
-0.24692 0.33636 1.39002 118 185 125
0.46991 -0.91687 0.95947 239 239 239
0.46991 -0.93953 0.95947 239 239 239
0.25898 -0.93953 0.95945 239 239 239
0.25898 -0.91687 0.95945 239 239 239
0.25325 -0.93953 0.93193 239 239 239
0.39701 -0.93953 0.93201 239 239 239
0.46991 -0.93953 0.75002 239 239 239
0.46991 -0.91687 0.75002 239 239 239
0.46991 -0.93953 0.67887 239 239 239
0.46991 -0.91687 0.67887 239 239 239
0.39697 -0.91687 0.67887 239 239 239
0.39697 -0.93953 0.67887 239 239 239
0.39701 -0.93953 0.71655 239 239 239
0.39701 -0.93953 0.75002 239 239 239
0.25325 -0.91687 0.93193 239 239 239
0.33638 -0.93953 0.86649 239 239 239
0.33638 -0.93953 0.75002 239 239 239
0.2727 -0.93953 0.75002 239 239 239
0.2727 -0.93953 0.86649 239 239 239
0.2727 -0.93953 0.73419 239 239 239
0.33638 -0.93953 0.73419 239 239 239
0.20053 -0.91687 0.67887 214 97 110
0.20826 -0.93953 0.71664 214 97 110
0.20053 -0.93953 0.67887 214 97 110
0.39701 -0.93953 0.71655 214 97 110
0.33638 -0.93953 0.73419 214 97 110
0.2727 -0.93953 0.73419 214 97 110
0.33638 -0.93953 0.75002 214 97 110
0.39701 -0.93953 0.75002 214 97 110
0.2727 -0.93953 0.75002 214 97 110
0.21522 -0.93953 0.75015 214 97 110
0.39697 -0.93953 0.67887 214 97 110
0.39697 -0.91687 0.67887 214 97 110
0.21522 -0.91687 0.75015 214 97 110
0.39701 -0.93953 0.93201 190 64 79
0.33638 -0.93953 0.86649 190 64 79
0.2727 -0.93953 0.86649 190 64 79
0.25325 -0.93953 0.93193 190 64 79
0.2727 -0.93953 0.75002 190 64 79
0.21522 -0.93953 0.75015 190 64 79
0.33638 -0.93953 0.75002 190 64 79
0.39701 -0.93953 0.75002 190 64 79
0.21522 -0.91687 0.75015 190 64 79
0.25325 -0.91687 0.93193 190 64 79
-0.46991 -0.91687 0.95947 239 239 239
-0.25898 -0.91687 0.95945 239 239 239
-0.25898 -0.93953 0.95945 239 239 239
-0.46991 -0.93953 0.95947 239 239 239
-0.25325 -0.93953 0.93193 239 239 239
-0.39701 -0.93953 0.93201 239 239 239
-0.46991 -0.93953 0.75002 239 239 239
-0.46991 -0.91687 0.75002 239 239 239
-0.46991 -0.93953 0.67887 239 239 239
-0.46991 -0.91687 0.67887 239 239 239
-0.39697 -0.91687 0.67887 239 239 239
-0.39697 -0.93953 0.67887 239 239 239
-0.39701 -0.93953 0.71655 239 239 239
-0.39701 -0.93953 0.75002 239 239 239
-0.25325 -0.91687 0.93193 239 239 239
-0.33638 -0.93953 0.86649 239 239 239
-0.2727 -0.93953 0.86649 239 239 239
-0.2727 -0.93953 0.75002 239 239 239
-0.33638 -0.93953 0.75002 239 239 239
-0.2727 -0.93953 0.73419 239 239 239
-0.33638 -0.93953 0.73419 239 239 239
-0.20053 -0.91687 0.67887 214 97 110
-0.20053 -0.93953 0.67887 214 97 110
-0.20826 -0.93953 0.71664 214 97 110
-0.39701 -0.93953 0.71655 214 97 110
-0.33638 -0.93953 0.73419 214 97 110
-0.2727 -0.93953 0.73419 214 97 110
-0.33638 -0.93953 0.75002 214 97 110
-0.39701 -0.93953 0.75002 214 97 110
-0.2727 -0.93953 0.75002 214 97 110
-0.21522 -0.93953 0.75015 214 97 110
-0.39697 -0.93953 0.67887 214 97 110
-0.39697 -0.91687 0.67887 214 97 110
-0.21522 -0.91687 0.75015 214 97 110
-0.39701 -0.93953 0.93201 190 64 79
-0.25325 -0.93953 0.93193 190 64 79
-0.2727 -0.93953 0.86649 190 64 79
-0.33638 -0.93953 0.86649 190 64 79
-0.2727 -0.93953 0.75002 190 64 79
-0.21522 -0.93953 0.75015 190 64 79
-0.33638 -0.93953 0.75002 190 64 79
-0.39701 -0.93953 0.75002 190 64 79
-0.21522 -0.91687 0.75015 190 64 79
-0.25325 -0.91687 0.93193 190 64 79
3 0 2 1
3 0 3 2
3 4 3 0
3 4 5 3
3 6 1 2
3 6 7 1
3 7 0 1
3 7 4 0
3 7 8 4
3 7 9 8
3 7 11 10
3 7 6 11
3 11 12 10
3 11 13 12
3 4 12 13
3 4 8 12
3 4 13 5
3 7 10 9
3 12 8 14
3 12 14 15
3 16 15 14
3 9 10 16
3 16 14 17
3 8 17 14
3 8 9 17
3 9 16 17
3 18 20 19
3 18 21 20
3 22 20 21
3 22 23 20
3 23 19 20
3 23 24 19
3 24 18 19
3 23 25 24
3 23 26 25
3 24 27 18
3 22 28 23
3 22 29 28
3 29 30 28
3 29 31 30
3 23 28 26
3 27 30 31
3 27 24 30
3 24 25 30
3 30 25 32
3 30 32 33
3 34 33 32
3 26 28 34
3 34 32 35
3 25 35 32
3 25 26 35
3 26 34 35
3 36 38 37
3 36 39 38
3 40 39 36
3 40 41 39
3 41 38 39
3 41 42 38
3 43 36 37
3 43 40 36
3 44 46 45
3 44 47 46
3 45 46 41
3 41 46 47
3 45 41 40
3 41 47 42
3 45 43 44
3 45 40 43
3 48 50 49
3 48 51 50
3 52 51 48
3 52 53 51
3 51 53 54
3 55 48 49
3 52 48 55
3 55 49 56
3 51 57 50
3 51 54 57
3 58 60 59
3 58 61 60
3 56 54 55
3 56 57 54
3 55 54 53
3 55 53 52
3 62 64 63
3 62 65 64
3 63 64 66
3 63 66 67
3 67 62 63
3 67 66 68
3 68 64 65
3 68 66 64
3 67 68 69
3 67 69 62
3 70 72 71
3 70 73 72
3 71 72 74
3 71 74 75
3 75 70 71
3 75 74 76
3 76 72 73
3 76 74 72
3 75 76 77
3 75 77 70
3 78 80 79
3 78 81 80
3 79 80 82
3 79 82 83
3 83 78 79
3 83 82 84
3 84 80 81
3 84 82 80
3 83 84 85
3 83 85 78
3 86 88 87
3 86 89 88
3 87 88 90
3 87 90 91
3 91 86 87
3 91 90 92
3 92 88 89
3 92 90 88
3 91 92 93
3 91 93 86
3 94 96 95
3 94 97 96
3 95 96 98
3 95 98 99
3 99 94 95
3 99 98 100
3 100 96 97
3 100 98 96
3 99 100 101
3 99 101 94
3 102 104 103
3 102 105 104
3 103 104 106
3 103 106 107
3 107 102 103
3 107 106 108
3 108 104 105
3 108 106 104
3 107 108 109
3 107 109 102
3 110 112 111
3 110 113 112
3 111 112 114
3 111 114 115
3 116 111 115
3 116 110 111
3 115 117 116
3 115 114 117
3 116 117 113
3 116 113 110
3 118 120 119
3 118 121 120
3 119 120 122
3 121 122 120
3 119 122 123
3 121 124 122
3 123 124 125
3 123 122 124
3 125 124 121
3 125 121 118
3 126 128 127
3 126 129 128
3 127 128 130
3 127 130 131
3 131 126 127
3 131 130 132
3 132 128 129
3 132 130 128
3 131 132 133
3 131 133 126
3 134 136 135
3 134 137 136
3 138 137 134
3 138 139 137
3 137 140 136
3 137 139 140
3 135 140 141
3 135 136 140
3 141 140 139
3 141 139 138
3 142 144 143
3 142 145 144
3 146 145 142
3 146 142 143
3 146 147 145
3 145 148 144
3 145 147 148
3 146 143 149
3 149 147 146
3 149 148 147
3 150 152 151
3 150 153 152
3 151 152 154
3 151 154 155
3 156 153 150
3 156 157 153
3 157 155 154
3 157 156 155
3 156 151 155
3 156 150 151
3 158 160 159
3 158 161 160
3 159 160 162
3 159 162 163
3 163 158 159
3 164 160 161
3 164 162 160
3 163 165 158
3 166 168 167
3 166 169 168
3 167 168 170
3 167 170 171
3 172 169 166
3 172 173 169
3 174 173 172
3 174 175 173
3 176 167 171
3 176 171 177
3 178 169 173
3 173 179 178
3 173 175 179
3 179 175 180
3 180 181 179
3 182 179 181
3 182 178 179
3 180 183 181
3 183 180 184
3 183 184 185
3 180 186 184
3 180 187 186
3 187 180 175
3 187 188 186
3 187 189 188
3 181 183 190
3 181 190 191
3 189 187 192
3 189 192 193
3 187 174 192
3 174 194 192
3 174 172 194
3 187 175 174
3 166 194 172
3 167 194 166
3 167 176 194
3 192 194 176
3 192 176 193
3 193 195 189
3 195 196 189
3 195 190 196
3 193 197 195
3 176 197 193
3 176 177 197
3 198 196 183
3 198 183 199
3 199 183 185
3 199 185 200
3 201 200 185
3 201 202 200
3 202 203 198
3 203 196 198
3 202 204 203
3 201 204 202
3 188 204 201
3 188 205 204
3 188 206 205
3 189 206 188
3 189 203 206
3 189 196 203
3 196 190 183
3 207 209 208
3 207 210 209
3 211 209 210
3 211 212 209
3 212 208 209
3 212 213 208
3 213 207 208
3 213 214 207
3 214 215 207
3 210 215 211
3 207 215 210
3 216 218 217
3 216 219 218
3 220 219 216
3 220 221 219
3 222 217 218
3 222 223 217
3 223 216 217
3 223 220 216
3 220 223 224
3 220 224 225
3 223 227 226
3 223 222 227
3 228 226 227
3 228 229 226
3 220 229 228
3 220 225 229
3 220 228 221
3 229 225 230
3 229 230 231
3 232 231 230
3 232 230 233
3 225 233 230
3 225 224 233
3 224 232 233
3 224 226 232
3 223 226 224
3 234 236 235
3 234 237 236
3 238 236 237
3 238 239 236
3 239 235 236
3 239 240 235
3 240 234 235
3 239 241 240
3 239 242 241
3 240 243 234
3 238 244 239
3 238 245 244
3 246 244 245
3 246 245 247
3 239 244 242
3 243 246 247
3 243 240 246
3 240 241 246
3 246 241 248
3 246 248 249
3 250 249 248
3 242 244 250
3 250 248 251
3 241 251 248
3 241 242 251
3 242 250 251
3 252 254 253
3 252 255 254
3 253 254 256
3 253 256 257
3 182 169 178
3 182 168 169
3 182 170 168
3 182 258 170
3 259 255 252
3 259 260 255
3 181 258 182
3 181 191 258
3 261 263 262
3 261 264 263
3 265 261 262
3 265 262 266
3 263 264 267
3 263 267 268
3 268 267 269
3 268 269 270
3 269 271 270
3 269 272 271
3 262 263 273
3 262 273 274
3 266 262 274
3 266 274 275
3 276 266 275
3 266 276 277
3 266 277 265
3 277 276 278
3 277 278 279
3 279 278 271
3 279 271 272
3 278 276 280
3 276 275 280
3 278 280 281
3 271 278 281
3 270 271 282
3 271 281 282
3 263 283 273
3 263 268 283
3 268 284 283
3 268 270 284
3 270 282 284
3 285 287 286
3 285 288 287
3 289 288 285
3 289 285 290
3 289 292 291
3 289 290 292
3 293 295 294
3 293 296 295
3 297 296 293
3 297 298 296
3 295 299 294
3 295 300 299
3 300 301 299
3 300 302 301
3 301 302 303
3 301 303 304
3 296 305 295
3 296 306 305
3 298 306 296
3 298 307 306
3 308 307 298
3 298 309 308
3 298 297 309
3 309 310 308
3 309 311 310
3 311 303 310
3 311 304 303
3 310 312 308
3 308 312 307
3 310 313 312
3 303 313 310
3 302 314 303
3 303 314 313
3 295 305 315
3 295 315 300
3 300 315 316
3 300 316 302
3 302 316 314
3 317 319 318
3 317 320 319
3 321 317 318
3 321 322 317
3 321 323 322
3 321 324 323
3 325 327 326
3 325 328 327
3 329 331 330
3 329 332 331
3 333 335 334
3 333 336 335
3 337 339 338
3 337 340 339
3 341 343 342
3 341 344 343
3 345 344 341
3 345 346 344
3 346 343 344
3 346 347 343
3 347 342 343
3 347 348 342
3 348 341 342
3 348 345 341
3 349 351 350
3 349 352 351
3 353 352 349
3 353 354 352
3 354 351 352
3 354 355 351
3 355 350 351
3 355 356 350
3 356 349 350
3 356 353 349
3 357 359 358
3 357 360 359
3 361 357 358
3 359 361 358
3 361 362 357
3 361 363 362
3 361 364 363
3 365 364 361
3 359 365 361
3 365 366 364
3 367 362 363
3 367 368 362
3 368 357 362
3 368 369 357
3 369 360 357
3 369 370 360
3 371 373 372
3 371 374 373
3 375 371 372
3 375 376 371
3 375 372 377
3 375 377 378
3 372 379 377
3 372 373 379
3 380 376 375
3 380 381 376
3 382 375 378
3 382 380 375
3 364 384 383
3 364 366 384
3 363 364 383
3 363 383 385
3 386 363 385
3 386 367 363
3 376 388 387
3 376 381 388
3 371 376 387
3 371 387 389
3 389 374 371
3 389 390 374
3 387 391 389
3 387 388 391
3 391 390 389
3 391 392 390
3 393 395 394
3 393 396 395
3 394 397 393
3 394 398 397
3 399 395 396
3 399 400 395
3 401 403 402
3 401 404 403
3 404 405 403
3 404 406 405
3 407 401 402
3 407 408 401
3 409 411 410
3 409 412 411
3 412 413 411
3 412 414 413
3 415 417 416
3 415 418 417
3 418 419 417
3 418 420 419
3 421 415 416
3 421 422 415
3 423 425 424
3 423 426 425
3 426 427 425
3 426 428 427
3 429 423 424
3 429 430 423
3 431 433 432
3 431 434 433
3 434 435 433
3 434 436 435
3 437 431 432
3 437 438 431
3 439 441 440
3 439 442 441
3 441 442 443
3 440 444 439
3 445 444 440
3 441 445 440
3 445 446 444
3 445 447 446
3 446 448 444
3 446 449 448
3 449 450 448
3 449 451 450
3 451 452 450
3 451 453 452
3 453 454 452
3 453 455 454
3 455 456 454
3 455 457 456
3 443 459 458
3 443 460 459
3 441 443 458
3 441 458 461
3 461 458 462
3 463 461 462
3 463 464 461
3 465 461 464
3 465 466 461
3 467 464 463
3 465 464 467
3 465 467 468
3 468 467 469
3 468 469 470
3 470 469 471
3 470 471 472
3 472 471 473
3 472 473 474
3 474 473 475
3 474 475 476
3 476 475 477
3 476 477 478
3 465 468 479
3 461 466 480
3 461 480 441
3 441 480 445
3 481 445 480
3 481 447 445
3 480 482 481
3 480 483 482
3 480 466 483
3 483 466 484
3 484 466 465
3 484 465 479
3 485 487 486
3 485 488 487
3 488 489 487
3 488 490 489
3 490 491 489
3 490 492 491
3 493 492 490
3 493 490 494
3 457 493 494
3 457 494 456
3 492 495 491
3 492 496 495
3 496 497 495
3 496 498 497
3 498 499 497
3 498 500 499
3 501 489 491
3 501 502 489
3 478 502 501
3 478 477 502
3 503 505 504
3 503 506 505
3 507 503 504
3 507 504 508
3 460 508 459
3 460 507 508
3 509 409 410
3 509 510 409
3 511 513 512
3 511 514 513
3 515 514 511
3 513 514 515
3 515 511 516
3 515 516 517
3 515 517 518
3 519 515 518
3 513 515 519
3 519 518 520
3 521 517 516
3 521 516 522
3 522 516 511
3 522 511 523
3 523 511 512
3 523 512 524
3 525 527 526
3 525 528 527
3 529 528 525
3 529 525 530
3 529 531 528
3 529 532 531
3 528 533 527
3 528 531 533
3 534 529 530
3 534 530 535
3 536 529 534
3 536 532 529
3 518 537 520
3 518 538 537
3 517 538 518
3 517 539 538
3 540 539 517
3 540 517 521
3 530 541 535
3 530 542 541
3 525 542 530
3 525 543 542
3 543 525 526
3 543 526 544
3 542 545 541
3 542 543 545
3 545 543 544
3 545 544 546
3 547 549 548
3 547 550 549
3 550 547 551
3 550 551 552
3 553 548 549
3 553 549 554
3 555 557 556
3 555 558 557
3 556 557 559
3 556 559 560
3 561 558 555
3 561 555 562
3 563 565 564
3 563 566 565
3 564 565 567
3 564 567 568
3 569 571 570
3 569 572 571
3 570 571 573
3 570 573 574
3 575 572 569
3 575 569 576
3 577 579 578
3 577 580 579
3 578 579 581
3 578 581 582
3 583 580 577
3 583 577 584
3 585 587 586
3 585 588 587
3 586 587 589
3 586 589 590
3 591 588 585
3 591 585 592
3 593 499 500
3 593 594 499
3 595 594 593
3 595 596 594
3 597 596 595
3 597 598 596
3 599 598 597
3 599 600 598
3 482 600 599
3 482 483 600
3 601 505 506
3 601 602 505
3 485 602 601
3 485 486 602
3 603 563 604
3 603 566 563
3 605 607 606
3 605 608 607
3 606 607 609
3 606 609 610
3 611 605 606
3 611 612 605
3 613 612 611
3 613 614 612
3 613 615 614
3 613 616 615
3 617 616 613
3 613 618 617
3 613 611 618
3 618 606 610
3 618 611 606
3 608 609 607
3 608 619 609
3 620 622 621
3 620 623 622
3 621 622 624
3 621 624 625
3 626 628 627
3 628 629 627
3 627 629 630
3 627 630 631
3 629 632 630
3 629 633 632
3 634 627 631
3 634 635 627
3 628 636 629
3 637 628 626
3 637 636 628
3 626 635 638
3 626 627 635
3 639 641 640
3 639 642 641
3 642 643 641
3 642 644 643
3 645 639 640
3 645 646 639
3 647 644 642
3 647 642 648
3 649 651 650
3 649 652 651
3 652 653 651
3 652 654 653
3 655 652 649
3 655 649 656
3 657 655 656
3 657 656 658
3 657 658 659
3 657 659 660
3 661 657 660
3 657 662 655
3 657 661 662
3 662 652 655
3 662 654 652
3 650 653 663
3 650 651 653
3 664 666 665
3 664 667 666
3 667 668 666
3 667 669 668
3 670 672 671
3 671 672 673
3 672 674 673
3 672 675 674
3 673 674 676
3 673 676 677
3 678 675 672
3 678 672 679
3 671 673 680
3 681 671 680
3 681 670 671
3 670 679 672
3 670 682 679
3 683 685 684
3 683 686 685
3 684 685 687
3 684 687 688
3 689 686 683
3 689 683 690
3 691 684 688
3 691 692 684
