ply
format ascii 1.0
element vertex 697
property float x
property float y
property float z
property uchar red
property uchar green
property uchar blue
element face 788
property list uchar int vertex_index
end_header
-0.48801 -0.14808 -7.62939E-08 186 230 98
-0.29037 -0.14808 0 186 230 98
-0.29037 -0.14808 0.37707 186 230 98
-0.48801 -0.14808 0.37707 186 230 98
-0.52972 -0.18923 -1.52588E-07 186 230 98
-0.52972 -0.18923 0.37707 186 230 98
-0.24865 -0.18923 0.37707 186 230 98
-0.24865 -0.18923 -1.52588E-07 186 230 98
-0.52972 -0.42057 -1.52588E-07 186 230 98
-0.24865 -0.42057 -1.52588E-07 186 230 98
-0.24865 -0.42057 0.07495 186 230 98
-0.24865 -0.42057 0.37707 186 230 98
-0.52972 -0.42057 0.07495 186 230 98
-0.52972 -0.42057 0.37707 186 230 98
-0.50657 -0.46433 1.5226E-18 186 230 98
-0.50657 -0.46433 0.07495 186 230 98
-0.27181 -0.46433 0.07495 186 230 98
-0.27181 -0.46433 1.5226E-18 186 230 98
-0.48801 0.69285 0.21461 186 230 98
-0.48801 0.69285 4.85577E-18 186 230 98
-0.29037 0.69285 1.17046E-17 186 230 98
-0.29037 0.69285 0.21461 186 230 98
-0.24865 0.65171 0.21461 186 230 98
-0.24865 0.65171 -1.52588E-07 186 230 98
-0.52972 0.65171 -1.52588E-07 186 230 98
-0.52972 0.42037 -1.52588E-07 186 230 98
-0.24865 0.42037 -1.52588E-07 186 230 98
-0.52972 0.65171 0.21461 186 230 98
-0.24865 0.42037 0.07495 186 230 98
-0.24865 0.42037 0.21461 186 230 98
-0.52972 0.42037 0.07495 186 230 98
-0.52972 0.42037 0.21461 186 230 98
-0.50657 0.3766 0 186 230 98
-0.50657 0.3766 0.07495 186 230 98
-0.27181 0.3766 0.07495 186 230 98
-0.27181 0.3766 0 186 230 98
0.49221 0.76199 0.23579 186 230 98
0.49221 0.76199 0.72252 186 230 98
-0.49227 0.76199 0.72252 186 230 98
-0.49227 0.76199 0.23579 186 230 98
0.55069 0.70289 0.19282 186 230 98
-0.55075 0.70289 0.19282 186 230 98
-0.55075 0.70289 0.72264 186 230 98
0.55069 0.70289 0.72264 186 230 98
0.55069 -0.36668 0.72253 186 230 98
0.55069 -0.36668 0.19282 186 230 98
-0.55075 -0.36668 0.19282 186 230 98
-0.55075 -0.36668 0.72253 186 230 98
0.22934 -0.71092 1.0845 105 148 58
0.22934 -0.71092 1.22136 105 148 58
-0.00301 -0.71092 1.22136 105 148 58
-0.00301 -0.71092 1.0845 105 148 58
0.22934 -0.94327 1.0845 105 148 58
-0.00301 -0.94327 1.0845 105 148 58
-0.00301 -0.94327 1.15293 105 148 58
0.22934 -0.94327 1.15293 105 148 58
0.22934 -0.87406 1.22136 105 148 58
-0.00301 -0.87406 1.22136 105 148 58
0.22934 -0.71092 1.22136 113 159 62
0.22934 -0.87406 1.22136 113 159 62
-0.00301 -0.87406 1.22136 113 159 62
-0.00301 -0.71092 1.22136 113 159 62
-0.07803 -0.90856 1.1005 105 148 58
-0.07803 -0.94327 1.1005 105 148 58
-0.1547 -0.94327 1.1005 105 148 58
-0.1547 -0.90856 1.1005 105 148 58
-0.1547 -0.94327 1.02837 105 148 58
-0.07803 -0.94327 1.02837 105 148 58
-0.1547 -0.90856 1.02837 105 148 58
-0.07803 -0.90856 1.02837 105 148 58
0.12619 -0.90856 0.98 105 148 58
0.12619 -0.94327 0.98 105 148 58
0.01875 -0.94327 0.98 105 148 58
0.01875 -0.90856 0.98 105 148 58
0.01875 -0.94327 0.86905 105 148 58
0.12619 -0.94327 0.86905 105 148 58
0.01875 -0.90856 0.86905 105 148 58
0.12619 -0.90856 0.86905 105 148 58
0.43618 -0.40899 0.25563 105 148 58
0.43618 -0.43532 0.25563 105 148 58
0.29453 -0.43532 0.25563 105 148 58
0.29453 -0.40899 0.25563 105 148 58
0.29453 -0.43532 0.11877 105 148 58
0.43618 -0.43532 0.11877 105 148 58
0.29453 -0.40899 0.11877 105 148 58
0.43618 -0.40899 0.11877 105 148 58
-0.31125 -0.4094 0.25749 105 148 58
-0.31125 -0.43532 0.25749 105 148 58
-0.42746 -0.43532 0.25749 105 148 58
-0.42746 -0.4094 0.25749 105 148 58
-0.42746 -0.43532 0.14515 105 148 58
-0.31125 -0.43532 0.14515 105 148 58
-0.42746 -0.4094 0.14515 105 148 58
-0.31125 -0.4094 0.14515 105 148 58
0.51362 -0.4094 0.34422 105 148 58
0.51362 -0.43532 0.34422 105 148 58
0.44633 -0.43532 0.34422 105 148 58
0.44633 -0.4094 0.34422 105 148 58
0.44633 -0.43532 0.27337 105 148 58
0.51362 -0.43532 0.27337 105 148 58
0.44633 -0.4094 0.27337 105 148 58
0.51362 -0.4094 0.27337 105 148 58
0.48969 0.43133 0.19493 105 148 58
0.48969 0.40808 0.19493 105 148 58
0.41498 0.40808 0.19493 105 148 58
0.41498 0.43133 0.19493 105 148 58
0.41498 0.40808 0.12958 105 148 58
0.48969 0.40808 0.12958 105 148 58
0.41498 0.43133 0.12958 105 148 58
0.48969 0.43133 0.12958 105 148 58
0.5625 0.31761 0.52842 105 148 58
0.5625 0.31784 0.73692 105 148 58
0.43256 0.31784 0.73692 105 148 58
0.43256 0.31761 0.52842 105 148 58
0.43256 0.02271 0.73724 105 148 58
0.5625 0.02271 0.73724 105 148 58
0.5625 0.02248 0.52874 105 148 58
0.43256 0.02248 0.52874 105 148 58
-0.43552 0.48699 0.52768 105 148 58
-0.43552 0.4871 0.73619 105 148 58
-0.56546 0.4871 0.73619 105 148 58
-0.56546 0.48699 0.52768 105 148 58
-0.56546 0.19197 0.73633 105 148 58
-0.43552 0.19197 0.73633 105 148 58
-0.56546 0.19186 0.52783 105 148 58
-0.43552 0.19186 0.52783 105 148 58
-0.3902 0.43133 0.18356 105 148 58
-0.3902 0.40808 0.18356 105 148 58
-0.48749 0.40808 0.18356 105 148 58
-0.48749 0.43133 0.18356 105 148 58
-0.48749 0.40808 0.09776 105 148 58
-0.3902 0.40808 0.09776 105 148 58
-0.48749 0.43133 0.09776 105 148 58
-0.3902 0.43133 0.09776 105 148 58
-0.3902 0.40808 0.09776 186 230 98
-0.3902 0.43133 0.09776 186 230 98
-0.48749 0.43133 0.09776 186 230 98
-0.48749 0.40808 0.09776 186 230 98
-0.43323 0.67585 0.61959 105 148 58
-0.43323 0.67581 0.73532 105 148 58
-0.56321 0.67581 0.73532 105 148 58
-0.56321 0.67585 0.61959 105 148 58
-0.43323 0.55744 0.61954 105 148 58
-0.56321 0.55744 0.61954 105 148 58
-0.56321 0.55739 0.73528 105 148 58
-0.43323 0.55739 0.73528 105 148 58
0.35511 -0.86065 0.55678 239 239 239
0.35511 -0.86065 0.61948 239 239 239
0.27602 -0.86065 0.61948 239 239 239
0.27602 -0.86065 0.55678 239 239 239
0.35511 -0.91134 0.55678 239 239 239
0.27602 -0.91134 0.55678 239 239 239
0.27602 -0.91134 0.61948 239 239 239
0.35511 -0.91134 0.61948 239 239 239
-0.35511 -0.86065 0.55678 239 239 239
-0.27602 -0.86065 0.55678 239 239 239
-0.27602 -0.86065 0.61948 239 239 239
-0.35511 -0.86065 0.61948 239 239 239
-0.27602 -0.91134 0.61948 239 239 239
-0.27602 -0.91134 0.55678 239 239 239
-0.35511 -0.91134 0.55678 239 239 239
-0.35511 -0.91134 0.61948 239 239 239
0.30683 -0.7501 0.52706 207 119 159
0.30683 -0.84512 0.52706 207 119 159
-0.30683 -0.84512 0.52706 207 119 159
-0.30683 -0.7501 0.52706 207 119 159
-0.30683 -0.84512 0.43267 207 119 159
0.30683 -0.84512 0.43267 207 119 159
-0.30683 -0.7501 0.43267 207 119 159
0.30683 -0.7501 0.43267 207 119 159
0.59882 -0.2708 0.37957 186 230 98
0.59882 -0.2708 1.14771 186 230 98
-0.59882 -0.2708 1.14771 186 230 98
-0.59882 -0.2708 0.37957 186 230 98
-0.55462 -0.31131 1.19805 186 230 98
0.55462 -0.31131 1.19805 186 230 98
0.60245 -0.33757 0.33821 186 230 98
-0.60245 -0.33757 0.33821 186 230 98
0.60245 -0.86897 0.33821 186 230 98
-0.60245 -0.86897 0.33821 186 230 98
0.66439 -0.33789 1.14849 186 230 98
0.60245 -0.37588 1.19805 186 230 98
-0.66663 -0.33648 0.38877 186 230 98
-0.66663 -0.87048 0.38877 186 230 98
-0.60245 -0.92356 0.3885 186 230 98
-0.66663 -0.87048 1.14749 186 230 98
-0.66663 -0.33648 1.14749 186 230 98
-0.60245 -0.92356 1.14886 186 230 98
-0.40616 -0.92356 0.44152 186 230 98
-0.40616 -0.92356 0.61326 186 230 98
0.40616 -0.92356 0.44152 186 230 98
0.60245 -0.92356 0.3885 186 230 98
0.40616 -0.92356 0.61326 186 230 98
0.60245 -0.92356 1.14886 186 230 98
-0.55462 -0.87004 1.19805 186 230 98
-0.60245 -0.82064 1.19805 186 230 98
0.66439 -0.86908 0.38777 186 230 98
0.66439 -0.86908 1.14849 186 230 98
0.66439 -0.33789 0.38777 186 230 98
0.55462 -0.87004 1.19805 186 230 98
0 -0.92356 1.14886 186 230 98
0.60245 -0.82164 1.19805 186 230 98
-0.03164 -0.92356 0.68477 186 230 98
-0.05352 -0.92356 0.68477 186 230 98
-0.05352 -0.92356 0.64091 186 230 98
-1.90735E-08 -0.92356 0.61326 186 230 98
-0.03164 -0.92356 0.64091 186 230 98
0.03164 -0.92356 0.68477 186 230 98
0.03164 -0.92356 0.64091 186 230 98
0.05345 -0.92356 0.64091 186 230 98
0.05345 -0.92356 0.68477 186 230 98
0.40616 -0.75861 0.61326 147 67 105
0.40616 -0.75861 0.44152 147 67 105
-0.40616 -0.75861 0.44152 147 67 105
-0.40616 -0.75861 0.61326 147 67 105
-0.40616 -0.92356 0.61326 147 67 105
-0.40616 -0.92356 0.44152 147 67 105
0.40616 -0.92356 0.44152 147 67 105
0.40616 -0.92356 0.61326 147 67 105
-1.90735E-08 -0.92356 0.61326 147 67 105
0.29037 -0.14808 0 186 230 98
0.48801 -0.14808 0 186 230 98
0.48801 -0.14808 0.37707 186 230 98
0.29037 -0.14808 0.37707 186 230 98
0.24865 -0.18923 0 186 230 98
0.24865 -0.18923 0.37707 186 230 98
0.52972 -0.18923 0.37707 186 230 98
0.52972 -0.18923 0 186 230 98
0.52972 -0.42057 0 186 230 98
0.24865 -0.42057 0 186 230 98
0.52972 -0.42057 0.07495 186 230 98
0.52972 -0.42057 0.37707 186 230 98
0.24865 -0.42057 0.37707 186 230 98
0.24865 -0.42057 0.07495 186 230 98
0.27181 -0.46433 1.5226E-18 186 230 98
0.27181 -0.46433 0.07495 186 230 98
0.50657 -0.46433 0.07495 186 230 98
0.50657 -0.46433 1.5226E-18 186 230 98
0.29037 0.69285 0.21461 186 230 98
0.29037 0.69285 1.17046E-17 186 230 98
0.48801 0.69285 4.85577E-18 186 230 98
0.48801 0.69285 0.21461 186 230 98
0.52972 0.65171 0.21461 186 230 98
0.52972 0.65171 0 186 230 98
0.24865 0.65171 0 186 230 98
0.24865 0.42037 0 186 230 98
0.52972 0.42037 0 186 230 98
0.24865 0.65171 0.21461 186 230 98
0.52972 0.42037 0.07495 186 230 98
0.52972 0.42037 0.21461 186 230 98
0.24865 0.42037 0.07495 186 230 98
0.24865 0.42037 0.21461 186 230 98
0.27181 0.3766 0 186 230 98
0.27181 0.3766 0.07495 186 230 98
0.50657 0.3766 0.07495 186 230 98
0.50657 0.3766 0 186 230 98
0.60245 -0.37588 1.19805 195 232 120
0.60245 -0.82164 1.19805 195 232 120
-0.60245 -0.82064 1.19805 195 232 120
-0.60245 -0.37538 1.19805 195 232 120
-0.55462 -0.87004 1.19805 195 232 120
0.55462 -0.87004 1.19805 195 232 120
-0.60245 -0.37538 1.19805 186 230 98
0.55462 -0.31131 1.19805 195 232 120
-0.55462 -0.31131 1.19805 195 232 120
0.29626 -0.76005 1.1557 186 230 98
0.34835 -0.76005 1.31181 186 230 98
0.39524 -0.78737 1.31181 186 230 98
0.34267 -0.78737 1.1557 186 230 98
0.29626 -0.55069 1.1557 186 230 98
0.34835 -0.55069 1.31181 186 230 98
0.60015 -0.78737 1.1557 186 230 98
0.58809 -0.78737 1.31181 186 230 98
0.64542 -0.76005 1.1557 186 230 98
0.63762 -0.76005 1.31181 186 230 98
0.63762 -0.55069 1.31181 186 230 98
0.64542 -0.55069 1.1557 186 230 98
0.40905 -0.76105 1.34115 186 230 98
0.37071 -0.74031 1.34115 186 230 98
0.37071 -0.57043 1.34115 186 230 98
0.39524 -0.52337 1.31181 186 230 98
0.34267 -0.52337 1.1557 186 230 98
0.58809 -0.52337 1.31181 186 230 98
0.60015 -0.52337 1.1557 186 230 98
0.40905 -0.54969 1.34115 186 230 98
0.57313 -0.54969 1.34115 186 230 98
0.61361 -0.57043 1.34115 186 230 98
0.57313 -0.76105 1.34115 186 230 98
0.61361 -0.74031 1.34115 186 230 98
0.40905 -0.76105 1.34115 195 232 120
0.37071 -0.74031 1.34115 195 232 120
0.37071 -0.57043 1.34115 195 232 120
0.40905 -0.54969 1.34115 195 232 120
0.57313 -0.54969 1.34115 195 232 120
0.57313 -0.76105 1.34115 195 232 120
0.61361 -0.57043 1.34115 195 232 120
0.61361 -0.74031 1.34115 195 232 120
-0.29626 -0.76005 1.1557 186 230 98
-0.34267 -0.78737 1.1557 186 230 98
-0.39524 -0.78737 1.31181 186 230 98
-0.34835 -0.76005 1.31181 186 230 98
-0.29626 -0.55069 1.1557 186 230 98
-0.34835 -0.55069 1.31181 186 230 98
-0.60015 -0.78737 1.1557 186 230 98
-0.58809 -0.78737 1.31181 186 230 98
-0.64542 -0.76005 1.1557 186 230 98
-0.63762 -0.76005 1.31181 186 230 98
-0.63762 -0.55069 1.31181 186 230 98
-0.64542 -0.55069 1.1557 186 230 98
-0.40905 -0.76105 1.34115 186 230 98
-0.37071 -0.74031 1.34115 186 230 98
-0.37071 -0.57043 1.34115 186 230 98
-0.39524 -0.52337 1.31181 186 230 98
-0.34267 -0.52337 1.1557 186 230 98
-0.58809 -0.52337 1.31181 186 230 98
-0.60015 -0.52337 1.1557 186 230 98
-0.40905 -0.54969 1.34115 186 230 98
-0.57313 -0.54969 1.34115 186 230 98
-0.61361 -0.57043 1.34115 186 230 98
-0.57313 -0.76105 1.34115 186 230 98
-0.61361 -0.74031 1.34115 186 230 98
-0.40905 -0.76105 1.34115 195 232 120
-0.40905 -0.54969 1.34115 195 232 120
-0.37071 -0.57043 1.34115 195 232 120
-0.37071 -0.74031 1.34115 195 232 120
-0.57313 -0.54969 1.34115 195 232 120
-0.57313 -0.76105 1.34115 195 232 120
-0.61361 -0.74031 1.34115 195 232 120
-0.61361 -0.57043 1.34115 195 232 120
0.52972 -0.42057 0.07495 195 232 120
0.50657 -0.46433 0.07495 195 232 120
0.27181 -0.46433 0.07495 195 232 120
0.24865 -0.42057 0.07495 195 232 120
-0.24865 -0.42057 0.07495 195 232 120
-0.27181 -0.46433 0.07495 195 232 120
-0.50657 -0.46433 0.07495 195 232 120
-0.52972 -0.42057 0.07495 195 232 120
-0.24865 0.42037 0.07495 195 232 120
-0.27181 0.3766 0.07495 195 232 120
-0.50657 0.3766 0.07495 195 232 120
-0.52972 0.42037 0.07495 195 232 120
0.52972 0.42037 0.07495 195 232 120
0.50657 0.3766 0.07495 195 232 120
0.27181 0.3766 0.07495 195 232 120
0.24865 0.42037 0.07495 195 232 120
0.03164 -0.91103 0.64091 155 192 82
0.03164 -0.91103 0.68477 155 192 82
0.05345 -0.91103 0.68477 155 192 82
0.05345 -0.91103 0.64091 155 192 82
0.03164 -0.92356 0.64091 155 192 82
0.05345 -0.92356 0.64091 155 192 82
0.05345 -0.92356 0.68477 155 192 82
0.03164 -0.92356 0.68477 155 192 82
-0.05352 -0.91103 0.64091 155 192 82
-0.05352 -0.91103 0.68477 155 192 82
-0.03164 -0.91103 0.68477 155 192 82
-0.03164 -0.91103 0.64091 155 192 82
-0.05352 -0.92356 0.64091 155 192 82
-0.03164 -0.92356 0.64091 155 192 82
-0.03164 -0.92356 0.68477 155 192 82
-0.05352 -0.92356 0.68477 155 192 82
0.63079 0.81308 0.71266 101 197 84
0.54536 0.89398 0.71273 101 197 84
0.04421 0.89383 0.71273 101 197 84
0.04421 0.81285 0.71266 101 197 84
0.57014 0.92134 0.77115 101 197 84
0.65944 0.83676 0.77107 101 197 84
0.65944 0.83625 1.32286 101 197 84
0.57014 0.92083 1.32294 101 197 84
0.04239 0.92134 0.77115 101 197 84
0.04239 0.92083 1.32294 101 197 84
0.65944 0.33642 1.3224 101 197 84
0.65944 0.33693 0.77061 101 197 84
0.63079 0.33934 0.71222 101 197 84
0.04421 0.33898 0.71222 101 197 84
0.65944 -0.25592 0.77007 101 197 84
0.65944 -0.25643 1.32186 101 197 84
0.65944 0.25198 1.32232 101 197 84
0.65944 0.25249 0.77054 101 197 84
0.57014 -0.34101 1.32178 101 197 84
0.57014 -0.34051 0.76999 101 197 84
0.61119 -0.21652 1.38951 101 197 84
0.52842 -0.29491 1.38944 101 197 84
0.60477 0.25192 1.38994 101 197 84
0.04239 -0.34101 1.32178 101 197 84
0.04239 -0.34051 0.76999 101 197 84
0.04298 -0.29491 1.38944 101 197 84
0.52842 0.87461 1.39051 101 197 84
0.04263 0.87461 1.39051 101 197 84
0.61119 0.79621 1.39044 101 197 84
0.60477 0.33636 1.39002 101 197 84
0.54536 -0.31303 0.71162 101 197 84
0.04421 -0.31288 0.71162 101 197 84
0.63079 -0.23212 0.7117 101 197 84
0.63079 0.25091 0.71214 101 197 84
0.04421 -0.23269 0.7117 101 197 84
0.04421 0.25093 0.71214 101 197 84
0.19559 0.53677 1.3902 104 205 87
0.52842 0.87461 1.39051 104 205 87
0.61119 0.79621 1.39044 104 205 87
0.24692 0.48399 1.39015 104 205 87
0.04239 0.53677 1.3902 104 205 87
0.04263 0.87461 1.39051 104 205 87
0.24692 0.33636 1.39002 104 205 87
0.60477 0.33636 1.39002 104 205 87
0.52842 -0.29491 1.38944 104 205 87
0.19559 0.04293 1.38975 104 205 87
0.24692 0.0957 1.3898 104 205 87
0.61119 -0.21652 1.38951 104 205 87
0.24692 0.25192 1.38994 104 205 87
0.60477 0.25192 1.38994 104 205 87
0.04239 0.04293 1.38975 104 205 87
0.04298 -0.29491 1.38944 104 205 87
0.24692 0.48399 1.39015 101 197 84
0.24692 0.48382 1.57815 101 197 84
0.19559 0.5366 1.5782 101 197 84
0.19559 0.53677 1.3902 101 197 84
0.04239 0.5366 1.5782 101 197 84
0.04239 0.53677 1.3902 101 197 84
0.19559 0.04293 1.38975 101 197 84
0.19559 0.04275 1.57774 101 197 84
0.24692 0.09553 1.57779 101 197 84
0.24692 0.0957 1.3898 101 197 84
0.24692 0.25175 1.57794 101 197 84
0.24692 0.25192 1.38994 101 197 84
0.04239 0.04275 1.57774 101 197 84
0.04239 0.04293 1.38975 101 197 84
0.24692 0.48382 1.57815 104 205 87
0.12091 0.37146 1.57804 104 205 87
0.08181 0.40845 1.57808 104 205 87
0.19559 0.5366 1.5782 104 205 87
0.04242 0.40845 1.57808 104 205 87
0.04239 0.5366 1.5782 104 205 87
0.12091 0.33498 1.57801 104 205 87
0.24692 0.33619 1.57801 104 205 87
0.19559 0.04275 1.57774 104 205 87
0.08181 0.1709 1.57786 104 205 87
0.12091 0.20789 1.57789 104 205 87
0.24692 0.09553 1.57779 104 205 87
0.12091 0.2509 1.57793 104 205 87
0.24692 0.25175 1.57794 104 205 87
0.04242 0.1709 1.57786 104 205 87
0.04239 0.04275 1.57774 104 205 87
0.12091 0.37146 1.57804 92 171 78
0.12091 0.37151 1.51936 92 171 78
0.08181 0.4085 1.51939 92 171 78
0.08181 0.40845 1.57808 92 171 78
0.04242 0.40845 1.57808 92 171 78
0.12091 0.33498 1.57801 92 171 78
0.12091 0.20794 1.51921 92 171 78
0.12091 0.2509 1.57793 92 171 78
0.12091 0.20789 1.57789 92 171 78
0.24692 0.33619 1.57801 92 171 78
0.24692 0.25175 1.57794 92 171 78
0.24692 0.33636 1.39002 92 171 78
0.24692 0.25192 1.38994 92 171 78
0.60477 0.33636 1.39002 92 171 78
0.60477 0.25192 1.38994 92 171 78
0.65944 0.33642 1.3224 92 171 78
0.65944 0.25198 1.32232 92 171 78
0.65944 0.33693 0.77061 92 171 78
0.65944 0.25249 0.77054 92 171 78
-0.04242 0.40845 1.57808 92 171 78
-0.04239 0.5366 1.5782 92 171 78
0.04239 0.5366 1.5782 92 171 78
-0.08181 0.4085 1.51939 92 171 78
-0.08181 0.40845 1.57808 92 171 78
-0.12091 0.37146 1.57804 92 171 78
-0.12091 0.37151 1.51936 92 171 78
-0.12091 0.20794 1.51921 92 171 78
-0.08181 0.17095 1.51918 92 171 78
-0.12091 0.33498 1.57801 92 171 78
-0.12091 0.2509 1.57793 92 171 78
-0.24692 0.33619 1.57801 92 171 78
-0.24692 0.25175 1.57794 92 171 78
-0.24692 0.33636 1.39002 92 171 78
-0.24692 0.25192 1.38994 92 171 78
-0.60485 0.33636 1.39002 92 171 78
-0.60485 0.25192 1.38994 92 171 78
-0.65944 0.33642 1.3224 92 171 78
-0.65944 0.25198 1.32232 92 171 78
-0.65944 0.33693 0.77061 92 171 78
-0.65944 0.25249 0.77054 92 171 78
-0.12091 0.20789 1.57789 92 171 78
0.08181 0.17095 1.51918 92 171 78
0.08181 0.1709 1.57786 92 171 78
0.04242 0.1709 1.57786 92 171 78
-0.04242 0.1709 1.57786 92 171 78
-0.08181 0.1709 1.57786 92 171 78
0.04421 0.89383 0.71273 92 171 78
-0.04421 0.89383 0.71273 92 171 78
-0.04421 0.81285 0.71266 92 171 78
0.04421 0.81285 0.71266 92 171 78
-0.04421 0.33898 0.71222 92 171 78
0.04421 0.33898 0.71222 92 171 78
-0.04421 0.25093 0.71214 92 171 78
0.04421 0.25093 0.71214 92 171 78
0.63079 0.25091 0.71214 92 171 78
0.63079 0.33934 0.71222 92 171 78
-0.04421 -0.23269 0.7117 92 171 78
0.04421 -0.23269 0.7117 92 171 78
-0.04421 -0.31288 0.71162 92 171 78
0.04421 -0.31288 0.71162 92 171 78
-0.04239 -0.34051 0.76999 92 171 78
0.04239 -0.34051 0.76999 92 171 78
-0.63079 0.25108 0.71214 92 171 78
-0.63079 0.33917 0.71222 92 171 78
0.04263 0.87461 1.39051 92 171 78
-0.04263 0.87461 1.39051 92 171 78
-0.04239 0.92083 1.32294 92 171 78
0.04239 0.92083 1.32294 92 171 78
0.04239 0.53677 1.3902 92 171 78
-0.04239 0.53677 1.3902 92 171 78
0.24692 0.33619 1.57801 101 197 84
0.24692 0.33636 1.39002 101 197 84
-0.63079 0.81308 0.71266 101 197 84
-0.04421 0.81285 0.71266 101 197 84
-0.04421 0.89383 0.71273 101 197 84
-0.54536 0.89398 0.71273 101 197 84
-0.57014 0.92134 0.77115 101 197 84
-0.65944 0.83676 0.77107 101 197 84
-0.65944 0.83625 1.32286 101 197 84
-0.57014 0.92083 1.32294 101 197 84
-0.04239 0.92134 0.77115 101 197 84
-0.04239 0.92083 1.32294 101 197 84
-0.65944 0.33642 1.3224 101 197 84
-0.65944 0.33693 0.77061 101 197 84
-0.63079 0.33917 0.71222 101 197 84
-0.04421 0.33898 0.71222 101 197 84
-0.65944 -0.25592 0.77007 101 197 84
-0.65944 0.25249 0.77054 101 197 84
-0.65944 0.25198 1.32232 101 197 84
-0.65944 -0.25643 1.32186 101 197 84
-0.57014 -0.34101 1.32178 101 197 84
-0.57014 -0.34051 0.76999 101 197 84
-0.61119 -0.21652 1.38951 101 197 84
-0.52842 -0.29491 1.38944 101 197 84
-0.60485 0.25192 1.38994 101 197 84
-0.04239 -0.34101 1.32178 101 197 84
-0.04239 -0.34051 0.76999 101 197 84
-0.04298 -0.29491 1.38944 101 197 84
-0.04263 0.87461 1.39051 101 197 84
-0.52842 0.87461 1.39051 101 197 84
-0.61119 0.79621 1.39044 101 197 84
-0.60485 0.33636 1.39002 101 197 84
-0.04421 -0.31288 0.71162 101 197 84
-0.54536 -0.31303 0.71162 101 197 84
-0.63079 -0.23212 0.7117 101 197 84
-0.63079 0.25108 0.71214 101 197 84
-0.04421 -0.23269 0.7117 101 197 84
-0.04421 0.25093 0.71214 101 197 84
-0.19559 0.53677 1.3902 104 205 87
-0.24692 0.48399 1.39015 104 205 87
-0.61119 0.79621 1.39044 104 205 87
-0.52842 0.87461 1.39051 104 205 87
-0.04239 0.53677 1.3902 104 205 87
-0.04263 0.87461 1.39051 104 205 87
-0.24692 0.33636 1.39002 104 205 87
-0.60485 0.33636 1.39002 104 205 87
-0.52842 -0.29491 1.38944 104 205 87
-0.61119 -0.21652 1.38951 104 205 87
-0.24692 0.0957 1.3898 104 205 87
-0.19559 0.04293 1.38975 104 205 87
-0.24692 0.25192 1.38994 104 205 87
-0.60485 0.25192 1.38994 104 205 87
-0.04239 0.04293 1.38975 104 205 87
-0.04298 -0.29491 1.38944 104 205 87
-0.24692 0.48399 1.39015 101 197 84
-0.19559 0.53677 1.3902 101 197 84
-0.19559 0.5366 1.5782 101 197 84
-0.24692 0.48382 1.57815 101 197 84
-0.04239 0.5366 1.5782 101 197 84
-0.04239 0.53677 1.3902 101 197 84
-0.19559 0.04293 1.38975 101 197 84
-0.24692 0.0957 1.3898 101 197 84
-0.24692 0.09553 1.57779 101 197 84
-0.19559 0.04275 1.57774 101 197 84
-0.24692 0.25175 1.57794 101 197 84
-0.24692 0.25192 1.38994 101 197 84
-0.04239 0.04275 1.57774 101 197 84
-0.04239 0.04293 1.38975 101 197 84
-0.24692 0.48382 1.57815 104 205 87
-0.19559 0.5366 1.5782 104 205 87
-0.08181 0.40845 1.57808 104 205 87
-0.12091 0.37146 1.57804 104 205 87
-0.04242 0.40845 1.57808 104 205 87
-0.04239 0.5366 1.5782 104 205 87
-0.12091 0.33498 1.57801 104 205 87
-0.24692 0.33619 1.57801 104 205 87
-0.19559 0.04275 1.57774 104 205 87
-0.24692 0.09553 1.57779 104 205 87
-0.12091 0.20789 1.57789 104 205 87
-0.08181 0.1709 1.57786 104 205 87
-0.12091 0.2509 1.57793 104 205 87
-0.24692 0.25175 1.57794 104 205 87
-0.04242 0.1709 1.57786 104 205 87
-0.04239 0.04275 1.57774 104 205 87
0.04239 -0.34101 1.32178 92 171 78
-0.04239 -0.34101 1.32178 92 171 78
0.04298 -0.29491 1.38944 92 171 78
-0.04298 -0.29491 1.38944 92 171 78
0.04239 0.04293 1.38975 92 171 78
-0.04239 0.04293 1.38975 92 171 78
0.04239 0.04275 1.57774 92 171 78
-0.04239 0.04275 1.57774 92 171 78
0.04239 0.92134 0.77115 92 171 78
-0.04239 0.92134 0.77115 92 171 78
-0.24692 0.33619 1.57801 101 197 84
-0.24692 0.33636 1.39002 101 197 84
0.46991 -0.91687 0.95947 255 249 249
0.46991 -0.93953 0.95947 255 249 249
0.25898 -0.93953 0.95945 255 249 249
0.25898 -0.91687 0.95945 255 249 249
0.25325 -0.93953 0.93193 255 249 249
0.39701 -0.93953 0.93201 255 249 249
0.46991 -0.93953 0.75002 255 249 249
0.46991 -0.91687 0.75002 255 249 249
0.46991 -0.93953 0.67887 255 249 249
0.46991 -0.91687 0.67887 255 249 249
0.39697 -0.91687 0.67887 255 249 249
0.39697 -0.93953 0.67887 255 249 249
0.39701 -0.93953 0.71655 255 249 249
0.39701 -0.93953 0.75002 255 249 249
0.25325 -0.91687 0.93193 255 249 249
0.33638 -0.93953 0.86649 255 249 249
0.33638 -0.93953 0.75002 255 249 249
0.2727 -0.93953 0.75002 255 249 249
0.2727 -0.93953 0.86649 255 249 249
0.2727 -0.93953 0.73419 255 249 249
0.33638 -0.93953 0.73419 255 249 249
0.20053 -0.91687 0.67887 255 129 110
0.20826 -0.93953 0.71664 255 129 110
0.20053 -0.93953 0.67887 255 129 110
0.39701 -0.93953 0.71655 255 129 110
0.33638 -0.93953 0.73419 255 129 110
0.2727 -0.93953 0.73419 255 129 110
0.33638 -0.93953 0.75002 255 129 110
0.39701 -0.93953 0.75002 255 129 110
0.2727 -0.93953 0.75002 255 129 110
0.21522 -0.93953 0.75015 255 129 110
0.39697 -0.93953 0.67887 255 129 110
0.39697 -0.91687 0.67887 255 129 110
0.21522 -0.91687 0.75015 255 129 110
0.39701 -0.93953 0.93201 240 108 88
0.33638 -0.93953 0.86649 240 108 88
0.2727 -0.93953 0.86649 240 108 88
0.25325 -0.93953 0.93193 240 108 88
0.2727 -0.93953 0.75002 240 108 88
0.21522 -0.93953 0.75015 240 108 88
0.33638 -0.93953 0.75002 240 108 88
0.39701 -0.93953 0.75002 240 108 88
0.21522 -0.91687 0.75015 240 108 88
0.25325 -0.91687 0.93193 240 108 88
-0.46991 -0.91687 0.95947 255 249 249
-0.25898 -0.91687 0.95945 255 249 249
-0.25898 -0.93953 0.95945 255 249 249
-0.46991 -0.93953 0.95947 255 249 249
-0.25325 -0.93953 0.93193 255 249 249
-0.39701 -0.93953 0.93201 255 249 249
-0.46991 -0.93953 0.75002 255 249 249
-0.46991 -0.91687 0.75002 255 249 249
-0.46991 -0.93953 0.67887 255 249 249
-0.46991 -0.91687 0.67887 255 249 249
-0.39697 -0.91687 0.67887 255 249 249
-0.39697 -0.93953 0.67887 255 249 249
-0.39701 -0.93953 0.71655 255 249 249
-0.39701 -0.93953 0.75002 255 249 249
-0.25325 -0.91687 0.93193 255 249 249
-0.33638 -0.93953 0.86649 255 249 249
-0.2727 -0.93953 0.86649 255 249 249
-0.2727 -0.93953 0.75002 255 249 249
-0.33638 -0.93953 0.75002 255 249 249
-0.2727 -0.93953 0.73419 255 249 249
-0.33638 -0.93953 0.73419 255 249 249
-0.20053 -0.91687 0.67887 255 129 110
-0.20053 -0.93953 0.67887 255 129 110
-0.20826 -0.93953 0.71664 255 129 110
-0.39701 -0.93953 0.71655 255 129 110
-0.33638 -0.93953 0.73419 255 129 110
-0.2727 -0.93953 0.73419 255 129 110
-0.33638 -0.93953 0.75002 255 129 110
-0.39701 -0.93953 0.75002 255 129 110
-0.2727 -0.93953 0.75002 255 129 110
-0.21522 -0.93953 0.75015 255 129 110
-0.39697 -0.93953 0.67887 255 129 110
-0.39697 -0.91687 0.67887 255 129 110
-0.21522 -0.91687 0.75015 255 129 110
-0.39701 -0.93953 0.93201 240 108 88
-0.25325 -0.93953 0.93193 240 108 88
-0.2727 -0.93953 0.86649 240 108 88
-0.33638 -0.93953 0.86649 240 108 88
-0.2727 -0.93953 0.75002 240 108 88
-0.21522 -0.93953 0.75015 240 108 88
-0.33638 -0.93953 0.75002 240 108 88
-0.39701 -0.93953 0.75002 240 108 88
-0.21522 -0.91687 0.75015 240 108 88
-0.25325 -0.91687 0.93193 240 108 88
3 0 2 1
3 0 3 2
3 4 3 0
3 4 5 3
3 6 1 2
3 6 7 1
3 7 0 1
3 7 4 0
3 7 8 4
3 7 9 8
3 7 11 10
3 7 6 11
3 11 12 10
3 11 13 12
3 4 12 13
3 4 8 12
3 4 13 5
3 7 10 9
3 12 8 14
3 12 14 15
3 16 15 14
3 9 10 16
3 16 14 17
3 8 17 14
3 8 9 17
3 9 16 17
3 18 20 19
3 18 21 20
3 22 20 21
3 22 23 20
3 23 19 20
3 23 24 19
3 24 18 19
3 23 25 24
3 23 26 25
3 24 27 18
3 22 28 23
3 22 29 28
3 29 30 28
3 29 31 30
3 23 28 26
3 27 30 31
3 27 24 30
3 24 25 30
3 30 25 32
3 30 32 33
3 34 33 32
3 26 28 34
3 34 32 35
3 25 35 32
3 25 26 35
3 26 34 35
3 36 38 37
3 36 39 38
3 40 39 36
3 40 41 39
3 41 38 39
3 41 42 38
3 43 36 37
3 43 40 36
3 44 46 45
3 44 47 46
3 45 46 41
3 41 46 47
3 45 41 40
3 41 47 42
3 45 43 44
3 45 40 43
3 48 50 49
3 48 51 50
3 52 51 48
3 52 53 51
3 51 53 54
3 55 48 49
3 52 48 55
3 55 49 56
3 51 57 50
3 51 54 57
3 58 60 59
3 58 61 60
3 56 54 55
3 56 57 54
3 55 54 53
3 55 53 52
3 62 64 63
3 62 65 64
3 63 64 66
3 63 66 67
3 67 62 63
3 67 66 68
3 68 64 65
3 68 66 64
3 67 68 69
3 67 69 62
3 70 72 71
3 70 73 72
3 71 72 74
3 71 74 75
3 75 70 71
3 75 74 76
3 76 72 73
3 76 74 72
3 75 76 77
3 75 77 70
3 78 80 79
3 78 81 80
3 79 80 82
3 79 82 83
3 83 78 79
3 83 82 84
3 84 80 81
3 84 82 80
3 83 84 85
3 83 85 78
3 86 88 87
3 86 89 88
3 87 88 90
3 87 90 91
3 91 86 87
3 91 90 92
3 92 88 89
3 92 90 88
3 91 92 93
3 91 93 86
3 94 96 95
3 94 97 96
3 95 96 98
3 95 98 99
3 99 94 95
3 99 98 100
3 100 96 97
3 100 98 96
3 99 100 101
3 99 101 94
3 102 104 103
3 102 105 104
3 103 104 106
3 103 106 107
3 107 102 103
3 107 106 108
3 108 104 105
3 108 106 104
3 107 108 109
3 107 109 102
3 110 112 111
3 110 113 112
3 111 112 114
3 111 114 115
3 116 111 115
3 116 110 111
3 115 117 116
3 115 114 117
3 116 117 113
3 116 113 110
3 118 120 119
3 118 121 120
3 119 120 122
3 121 122 120
3 119 122 123
3 121 124 122
3 123 124 125
3 123 122 124
3 125 124 121
3 125 121 118
3 126 128 127
3 126 129 128
3 127 128 130
3 127 130 131
3 131 126 127
3 132 128 129
3 132 130 128
3 131 133 126
3 134 136 135
3 134 137 136
3 138 140 139
3 138 141 140
3 142 141 138
3 142 143 141
3 141 144 140
3 141 143 144
3 139 144 145
3 139 140 144
3 145 144 143
3 145 143 142
3 146 148 147
3 146 149 148
3 150 149 146
3 150 146 147
3 150 151 149
3 149 152 148
3 149 151 152
3 150 147 153
3 153 151 150
3 153 152 151
3 154 156 155
3 154 157 156
3 155 156 158
3 155 158 159
3 160 157 154
3 160 161 157
3 161 159 158
3 161 160 159
3 160 155 159
3 160 154 155
3 162 164 163
3 162 165 164
3 163 164 166
3 163 166 167
3 167 162 163
3 168 164 165
3 168 166 164
3 167 169 162
3 170 172 171
3 170 173 172
3 171 172 174
3 171 174 175
3 176 173 170
3 176 177 173
3 178 177 176
3 178 179 177
3 180 171 175
3 180 175 181
3 182 173 177
3 177 183 182
3 177 179 183
3 183 179 184
3 184 185 183
3 186 183 185
3 186 182 183
3 184 187 185
3 187 184 188
3 187 188 189
3 184 190 188
3 184 191 190
3 191 184 179
3 191 192 190
3 191 193 192
3 185 187 194
3 185 194 195
3 193 191 196
3 193 196 197
3 191 178 196
3 178 198 196
3 178 176 198
3 191 179 178
3 170 198 176
3 171 198 170
3 171 180 198
3 196 198 180
3 196 180 197
3 197 199 193
3 199 200 193
3 199 194 200
3 197 201 199
3 180 201 197
3 180 181 201
3 202 200 187
3 202 187 203
3 203 187 189
3 203 189 204
3 205 204 189
3 205 206 204
3 206 207 202
3 207 200 202
3 206 208 207
3 205 208 206
3 192 208 205
3 192 209 208
3 192 210 209
3 193 210 192
3 193 207 210
3 193 200 207
3 200 194 187
3 211 213 212
3 211 214 213
3 215 213 214
3 215 216 213
3 216 212 213
3 216 217 212
3 217 211 212
3 217 218 211
3 218 219 211
3 214 219 215
3 211 219 214
3 220 222 221
3 220 223 222
3 224 223 220
3 224 225 223
3 226 221 222
3 226 227 221
3 227 220 221
3 227 224 220
3 224 227 228
3 224 228 229
3 227 231 230
3 227 226 231
3 232 230 231
3 232 233 230
3 224 233 232
3 224 229 233
3 224 232 225
3 233 229 234
3 233 234 235
3 236 235 234
3 236 234 237
3 229 237 234
3 229 228 237
3 228 236 237
3 228 230 236
3 227 230 228
3 238 240 239
3 238 241 240
3 242 240 241
3 242 243 240
3 243 239 240
3 243 244 239
3 244 238 239
3 243 245 244
3 243 246 245
3 244 247 238
3 242 248 243
3 242 249 248
3 250 248 249
3 250 249 251
3 243 248 246
3 247 250 251
3 247 244 250
3 244 245 250
3 250 245 252
3 250 252 253
3 254 253 252
3 246 248 254
3 254 252 255
3 245 255 252
3 245 246 255
3 246 254 255
3 256 258 257
3 256 259 258
3 257 258 260
3 257 260 261
3 186 173 182
3 186 172 173
3 186 174 172
3 186 262 174
3 263 259 256
3 263 264 259
3 185 262 186
3 185 195 262
3 265 267 266
3 265 268 267
3 269 265 266
3 269 266 270
3 267 268 271
3 267 271 272
3 272 271 273
3 272 273 274
3 273 275 274
3 273 276 275
3 266 267 277
3 266 277 278
3 270 266 278
3 270 278 279
3 280 270 279
3 270 280 281
3 270 281 269
3 281 280 282
3 281 282 283
3 283 282 275
3 283 275 276
3 282 280 284
3 280 279 284
3 282 284 285
3 275 282 285
3 274 275 286
3 275 285 286
3 267 287 277
3 267 272 287
3 272 288 287
3 272 274 288
3 274 286 288
3 289 291 290
3 289 292 291
3 293 292 289
3 293 289 294
3 293 296 295
3 293 294 296
3 297 299 298
3 297 300 299
3 301 300 297
3 301 302 300
3 299 303 298
3 299 304 303
3 304 305 303
3 304 306 305
3 305 306 307
3 305 307 308
3 300 309 299
3 300 310 309
3 302 310 300
3 302 311 310
3 312 311 302
3 302 313 312
3 302 301 313
3 313 314 312
3 313 315 314
3 315 307 314
3 315 308 307
3 314 316 312
3 312 316 311
3 314 317 316
3 307 317 314
3 306 318 307
3 307 318 317
3 299 309 319
3 299 319 304
3 304 319 320
3 304 320 306
3 306 320 318
3 321 323 322
3 321 324 323
3 325 321 322
3 325 326 321
3 325 327 326
3 325 328 327
3 329 331 330
3 329 332 331
3 333 335 334
3 333 336 335
3 337 339 338
3 337 340 339
3 341 343 342
3 341 344 343
3 345 347 346
3 345 348 347
3 349 348 345
3 349 350 348
3 350 347 348
3 350 351 347
3 351 346 347
3 351 352 346
3 352 345 346
3 352 349 345
3 353 355 354
3 353 356 355
3 357 356 353
3 357 358 356
3 358 355 356
3 358 359 355
3 359 354 355
3 359 360 354
3 360 353 354
3 360 357 353
3 361 363 362
3 361 364 363
3 365 361 362
3 363 365 362
3 365 366 361
3 365 367 366
3 365 368 367
3 369 368 365
3 363 369 365
3 369 370 368
3 371 366 367
3 371 372 366
3 372 361 366
3 372 373 361
3 373 364 361
3 373 374 364
3 375 377 376
3 375 378 377
3 379 375 376
3 379 380 375
3 379 376 381
3 379 381 382
3 376 383 381
3 376 377 383
3 384 380 379
3 384 385 380
3 386 379 382
3 386 384 379
3 368 388 387
3 368 370 388
3 367 368 387
3 367 387 389
3 390 367 389
3 390 371 367
3 380 392 391
3 380 385 392
3 375 380 391
3 375 391 393
3 393 378 375
3 393 394 378
3 391 395 393
3 391 392 395
3 395 394 393
3 395 396 394
3 397 399 398
3 397 400 399
3 398 401 397
3 398 402 401
3 403 399 400
3 403 404 399
3 405 407 406
3 405 408 407
3 408 409 407
3 408 410 409
3 411 405 406
3 411 412 405
3 413 415 414
3 413 416 415
3 416 417 415
3 416 418 417
3 419 421 420
3 419 422 421
3 422 423 421
3 422 424 423
3 425 419 420
3 425 426 419
3 427 429 428
3 427 430 429
3 430 431 429
3 430 432 431
3 433 427 428
3 433 434 427
3 435 437 436
3 435 438 437
3 438 439 437
3 438 440 439
3 441 435 436
3 441 442 435
3 443 445 444
3 443 446 445
3 445 446 447
3 444 448 443
3 449 448 444
3 445 449 444
3 449 450 448
3 449 451 450
3 450 452 448
3 450 453 452
3 453 454 452
3 453 455 454
3 455 456 454
3 455 457 456
3 457 458 456
3 457 459 458
3 459 460 458
3 459 461 460
3 447 463 462
3 447 464 463
3 445 447 462
3 445 462 465
3 465 462 466
3 467 465 466
3 467 468 465
3 469 465 468
3 469 470 465
3 471 468 467
3 469 468 471
3 469 471 472
3 472 471 473
3 472 473 474
3 474 473 475
3 474 475 476
3 476 475 477
3 476 477 478
3 478 477 479
3 478 479 480
3 480 479 481
3 480 481 482
3 469 472 483
3 465 470 484
3 465 484 445
3 445 484 449
3 485 449 484
3 485 451 449
3 484 486 485
3 484 487 486
3 484 470 487
3 487 470 488
3 488 470 469
3 488 469 483
3 489 491 490
3 489 492 491
3 492 493 491
3 492 494 493
3 494 495 493
3 494 496 495
3 497 496 494
3 497 494 498
3 461 497 498
3 461 498 460
3 496 499 495
3 496 500 499
3 500 501 499
3 500 502 501
3 502 503 501
3 502 504 503
3 505 493 495
3 505 506 493
3 482 506 505
3 482 481 506
3 507 509 508
3 507 510 509
3 511 507 508
3 511 508 512
3 464 512 463
3 464 511 512
3 513 413 414
3 513 514 413
3 515 517 516
3 515 518 517
3 519 518 515
3 517 518 519
3 519 515 520
3 519 520 521
3 519 521 522
3 523 519 522
3 517 519 523
3 523 522 524
3 525 521 520
3 525 520 526
3 526 520 515
3 526 515 527
3 527 515 516
3 527 516 528
3 529 531 530
3 529 532 531
3 533 532 529
3 533 529 534
3 533 535 532
3 533 536 535
3 532 537 531
3 532 535 537
3 538 533 534
3 538 534 539
3 540 533 538
3 540 536 533
3 522 541 524
3 522 542 541
3 521 542 522
3 521 543 542
3 544 543 521
3 544 521 525
3 534 545 539
3 534 546 545
3 529 546 534
3 529 547 546
3 547 529 530
3 547 530 548
3 546 549 545
3 546 547 549
3 549 547 548
3 549 548 550
3 551 553 552
3 551 554 553
3 554 551 555
3 554 555 556
3 557 552 553
3 557 553 558
3 559 561 560
3 559 562 561
3 560 561 563
3 560 563 564
3 565 562 559
3 565 559 566
3 567 569 568
3 567 570 569
3 568 569 571
3 568 571 572
3 573 575 574
3 573 576 575
3 574 575 577
3 574 577 578
3 579 576 573
3 579 573 580
3 581 583 582
3 581 584 583
3 582 583 585
3 582 585 586
3 587 584 581
3 587 581 588
3 589 591 590
3 589 592 591
3 590 591 593
3 590 593 594
3 595 592 589
3 595 589 596
3 597 503 504
3 597 598 503
3 599 598 597
3 599 600 598
3 601 600 599
3 601 602 600
3 603 602 601
3 603 604 602
3 486 604 603
3 486 487 604
3 605 509 510
3 605 606 509
3 489 606 605
3 489 490 606
3 607 567 608
3 607 570 567
3 609 611 610
3 609 612 611
3 610 611 613
3 610 613 614
3 615 609 610
3 615 616 609
3 617 616 615
3 617 618 616
3 617 619 618
3 617 620 619
3 621 620 617
3 617 622 621
3 617 615 622
3 622 610 614
3 622 615 610
3 612 613 611
3 612 623 613
3 624 626 625
3 624 627 626
3 625 626 628
3 625 628 629
3 630 632 631
3 632 633 631
3 631 633 634
3 631 634 635
3 633 636 634
3 633 637 636
3 638 631 635
3 638 639 631
3 632 640 633
3 641 632 630
3 641 640 632
3 630 639 642
3 630 631 639
3 643 645 644
3 643 646 645
3 646 647 645
3 646 648 647
3 649 643 644
3 649 650 643
3 651 648 646
3 651 646 652
3 653 655 654
3 653 656 655
3 656 657 655
3 656 658 657
3 659 656 653
3 659 653 660
3 661 659 660
3 661 660 662
3 661 662 663
3 661 663 664
3 665 661 664
3 661 666 659
3 661 665 666
3 666 656 659
3 666 658 656
3 654 657 667
3 654 655 657
3 668 670 669
3 668 671 670
3 671 672 670
3 671 673 672
3 674 676 675
3 675 676 677
3 676 678 677
3 676 679 678
3 677 678 680
3 677 680 681
3 682 679 676
3 682 676 683
3 675 677 684
3 685 675 684
3 685 674 675
3 674 683 676
3 674 686 683
3 687 689 688
3 687 690 689
3 688 689 691
3 688 691 692
3 693 690 687
3 693 687 694
3 695 688 692
3 695 696 688
